<?xml version="1.0" encoding="UTF-8" standalone="no"?><svg xmlns="http://www.w3.org/2000/svg" xmlns:xlink="http://www.w3.org/1999/xlink" contentStyleType="text/css" height="471px" preserveAspectRatio="none" style="width:711px;height:471px;background:#FFFFFF;" version="1.1" viewBox="0 0 711 471" width="711px" zoomAndPan="magnify"><defs/><g><!--MD5=[84b6d46f1d2e9f99ff63a80392d23d14]
class LoginArgs--><g id="elem_LoginArgs"><rect codeLine="1" fill="#F1F1F1" height="65.6094" id="LoginArgs" rx="2.5" ry="2.5" style="stroke:#181818;stroke-width:0.5;" width="290" x="414.5" y="167.5"/><ellipse cx="523.25" cy="183.5" fill="#ADD1B2" rx="11" ry="11" style="stroke:#181818;stroke-width:1.0;"/><path d="M526.0156,179.375 Q526.1719,179.1563 526.3594,179.0469 Q526.5469,178.9375 526.7656,178.9375 Q527.1406,178.9375 527.375,179.1953 Q527.6094,179.4531 527.6094,180.0625 L527.6094,181.5156 Q527.6094,182.125 527.375,182.3906 Q527.1406,182.6563 526.7656,182.6563 Q526.4219,182.6563 526.2188,182.4531 Q526.0156,182.2656 525.9063,181.75 Q525.8594,181.3906 525.6719,181.2031 Q525.3438,180.8281 524.7344,180.6094 Q524.125,180.3906 523.5,180.3906 Q522.7344,180.3906 522.1016,180.7188 Q521.4688,181.0469 520.9766,181.7969 Q520.4844,182.5469 520.4844,183.5781 L520.4844,184.6719 Q520.4844,185.9063 521.375,186.7266 Q522.2656,187.5469 523.8594,187.5469 Q524.7969,187.5469 525.4531,187.2969 Q525.8438,187.1406 526.2656,186.7031 Q526.5313,186.4375 526.6797,186.3594 Q526.8281,186.2813 527.0313,186.2813 Q527.3594,186.2813 527.6172,186.5391 Q527.875,186.7969 527.875,187.1406 Q527.875,187.4844 527.5313,187.8906 Q527.0313,188.4688 526.2344,188.7969 Q525.1563,189.25 523.8594,189.25 Q522.3438,189.25 521.1406,188.625 Q520.1563,188.125 519.4688,187.0547 Q518.7813,185.9844 518.7813,184.7031 L518.7813,183.5469 Q518.7813,182.2188 519.3984,181.0703 Q520.0156,179.9219 521.1094,179.3047 Q522.2031,178.6875 523.4375,178.6875 Q524.1719,178.6875 524.8203,178.8516 Q525.4688,179.0156 526.0156,179.375 Z " fill="#000000"/><text fill="#000000" font-family="sans-serif" font-size="14" lengthAdjust="spacing" textLength="64" x="543.75" y="189.2285">LoginArgs</text><line style="stroke:#181818;stroke-width:0.5;" x1="415.5" x2="703.5" y1="199.5" y2="199.5"/><line style="stroke:#181818;stroke-width:0.5;" x1="415.5" x2="703.5" y1="207.5" y2="207.5"/><ellipse cx="425.5" cy="218.5" fill="#84BE84" rx="3" ry="3" style="stroke:#038048;stroke-width:1.0;"/><text fill="#000000" font-family="sans-serif" font-size="14" lengthAdjust="spacing" textLength="264" x="434.5" y="226.0332">LoginArgs(user:IUser, phase:LoginPhase)</text></g><!--MD5=[5b1067e60ed8091334f01cfefb165077]
class LoginPhase--><g id="elem_LoginPhase"><rect codeLine="4" fill="#F1F1F1" height="100.8281" id="LoginPhase" rx="2.5" ry="2.5" style="stroke:#181818;stroke-width:0.5;" width="107" x="506" y="337.5"/><ellipse cx="521" cy="353.5" fill="#EB937F" rx="11" ry="11" style="stroke:#181818;stroke-width:1.0;"/><path d="M519.8594,354.2969 L519.8594,356.7969 L524.1875,356.7969 L524.1875,355.875 Q524.1875,355.2656 524.4297,355 Q524.6719,354.7344 525.0469,354.7344 Q525.4219,354.7344 525.6563,355 Q525.8906,355.2656 525.8906,355.875 L525.8906,358.5 L517.8906,358.5 Q517.2656,358.5 517.0078,358.2656 Q516.75,358.0313 516.75,357.6406 Q516.75,357.2656 517.0156,357.0313 Q517.2813,356.7969 517.8906,356.7969 L518.1563,356.7969 L518.1563,350.1406 L517.8906,350.1406 Q517.2656,350.1406 517.0078,349.9063 Q516.75,349.6719 516.75,349.2813 Q516.75,348.9063 517.0078,348.6719 Q517.2656,348.4375 517.8906,348.4375 L525.5156,348.4375 L525.5156,351.0313 Q525.5156,351.6406 525.2891,351.8984 Q525.0625,352.1563 524.6719,352.1563 Q524.2969,352.1563 524.0625,351.8984 Q523.8281,351.6406 523.8281,351.0313 L523.8281,350.1406 L519.8594,350.1406 L519.8594,352.5938 L521.3438,352.5938 Q521.3438,351.9375 521.4688,351.75 Q521.7344,351.3438 522.2031,351.3438 Q522.5781,351.3438 522.8125,351.6016 Q523.0469,351.8594 523.0469,352.4688 L523.0469,354.4375 Q523.0469,354.9844 522.9219,355.1719 Q522.6563,355.5625 522.2031,355.5625 Q521.7344,355.5625 521.4688,355.1563 Q521.3438,354.9688 521.3438,354.2969 L519.8594,354.2969 Z " fill="#000000"/><text fill="#000000" font-family="sans-serif" font-size="14" lengthAdjust="spacing" textLength="75" x="535" y="359.2285">LoginPhase</text><line style="stroke:#181818;stroke-width:0.5;" x1="507" x2="612" y1="369.5" y2="369.5"/><text fill="#000000" font-family="sans-serif" font-size="14" lengthAdjust="spacing" textLength="57" x="512" y="388.0332">Request,</text><text fill="#000000" font-family="sans-serif" font-size="14" lengthAdjust="spacing" textLength="68" x="512" y="405.6426">Response,</text><text fill="#000000" font-family="sans-serif" font-size="14" lengthAdjust="spacing" textLength="57" x="512" y="423.252">Success,</text><line style="stroke:#181818;stroke-width:0.5;" x1="507" x2="612" y1="430.3281" y2="430.3281"/></g><!--MD5=[4397ba3f25468a58f081bf0666d83f60]
class IUser--><g id="elem_IUser"><rect codeLine="9" fill="#F1F1F1" height="153.6563" id="IUser" rx="2.5" ry="2.5" style="stroke:#181818;stroke-width:0.5;" width="261" x="83" y="311"/><ellipse cx="192.25" cy="327" fill="#B4A7E5" rx="11" ry="11" style="stroke:#181818;stroke-width:1.0;"/><path d="M193.2031,323.6406 L193.2031,330.2969 L194.9219,330.2969 Q195.5313,330.2969 195.7969,330.5313 Q196.0625,330.7656 196.0625,331.1563 Q196.0625,331.5313 195.7969,331.7656 Q195.5313,332 194.9219,332 L189.7813,332 Q189.1719,332 188.9063,331.7656 Q188.6406,331.5313 188.6406,331.1406 Q188.6406,330.7656 188.9063,330.5313 Q189.1719,330.2969 189.7813,330.2969 L191.5,330.2969 L191.5,323.6406 L189.7813,323.6406 Q189.1719,323.6406 188.9063,323.4063 Q188.6406,323.1719 188.6406,322.7813 Q188.6406,322.4063 188.9063,322.1719 Q189.1719,321.9375 189.7813,321.9375 L194.9219,321.9375 Q195.5313,321.9375 195.7969,322.1719 Q196.0625,322.4063 196.0625,322.7813 Q196.0625,323.1719 195.7969,323.4063 Q195.5313,323.6406 194.9219,323.6406 L193.2031,323.6406 Z " fill="#000000"/><text fill="#000000" font-family="sans-serif" font-size="14" font-style="italic" lengthAdjust="spacing" textLength="34" x="212.75" y="332.7285">IUser</text><line style="stroke:#181818;stroke-width:0.5;" x1="84" x2="343" y1="343" y2="343"/><text fill="#000000" font-family="sans-serif" font-size="14" lengthAdjust="spacing" textLength="117" x="89" y="361.5332">Id : int «get» «set»</text><text fill="#000000" font-family="sans-serif" font-size="14" lengthAdjust="spacing" textLength="161" x="89" y="379.1426">Login : string «get» «set»</text><text fill="#000000" font-family="sans-serif" font-size="14" lengthAdjust="spacing" textLength="187" x="89" y="396.752">Password : string «get» «set»</text><text fill="#000000" font-family="sans-serif" font-size="14" lengthAdjust="spacing" textLength="162" x="89" y="414.3613">Name : string «get» «set»</text><text fill="#000000" font-family="sans-serif" font-size="14" lengthAdjust="spacing" textLength="183" x="89" y="431.9707">Surname : string «get» «set»</text><line style="stroke:#181818;stroke-width:0.5;" x1="84" x2="343" y1="439.0469" y2="439.0469"/><text fill="#000000" font-family="sans-serif" font-size="14" lengthAdjust="spacing" textLength="249" x="89" y="457.5801">CheckPassword(password:string) : bool</text></g><!--MD5=[1a70795ac229e48b124a99137acc095a]
class IAuthService--><g id="elem_IAuthService"><rect codeLine="19" fill="#F1F1F1" height="83.2188" id="IAuthService" rx="2.5" ry="2.5" style="stroke:#181818;stroke-width:0.5;" width="195" x="7" y="7"/><ellipse cx="60.75" cy="23" fill="#B4A7E5" rx="11" ry="11" style="stroke:#181818;stroke-width:1.0;"/><path d="M61.7031,19.6406 L61.7031,26.2969 L63.4219,26.2969 Q64.0313,26.2969 64.2969,26.5313 Q64.5625,26.7656 64.5625,27.1563 Q64.5625,27.5313 64.2969,27.7656 Q64.0313,28 63.4219,28 L58.2813,28 Q57.6719,28 57.4063,27.7656 Q57.1406,27.5313 57.1406,27.1406 Q57.1406,26.7656 57.4063,26.5313 Q57.6719,26.2969 58.2813,26.2969 L60,26.2969 L60,19.6406 L58.2813,19.6406 Q57.6719,19.6406 57.4063,19.4063 Q57.1406,19.1719 57.1406,18.7813 Q57.1406,18.4063 57.4063,18.1719 Q57.6719,17.9375 58.2813,17.9375 L63.4219,17.9375 Q64.0313,17.9375 64.2969,18.1719 Q64.5625,18.4063 64.5625,18.7813 Q64.5625,19.1719 64.2969,19.4063 Q64.0313,19.6406 63.4219,19.6406 L61.7031,19.6406 Z " fill="#000000"/><text fill="#000000" font-family="sans-serif" font-size="14" font-style="italic" lengthAdjust="spacing" textLength="79" x="81.25" y="28.7285">IAuthService</text><line style="stroke:#181818;stroke-width:0.5;" x1="8" x2="201" y1="39" y2="39"/><ellipse cx="18" cy="50" fill="none" rx="3" ry="3" style="stroke:#038048;stroke-width:1.0;"/><text fill="#000000" font-family="sans-serif" font-size="14" lengthAdjust="spacing" textLength="169" x="27" y="57.5332">CurrentUser : IUser? «get»</text><ellipse cx="18" cy="67.6094" fill="none" rx="3" ry="3" style="stroke:#038048;stroke-width:1.0;"/><text fill="#000000" font-family="sans-serif" font-size="14" lengthAdjust="spacing" textLength="137" x="27" y="75.1426">IsLogged : bool «get»</text><line style="stroke:#181818;stroke-width:0.5;" x1="8" x2="201" y1="82.2188" y2="82.2188"/></g><!--MD5=[b4f586f7c628b5a371c8c0ac9af5f898]
class AuthService--><g id="elem_AuthService"><rect codeLine="24" fill="#F1F1F1" height="100.8281" id="AuthService" rx="2.5" ry="2.5" style="stroke:#181818;stroke-width:0.5;" width="332" x="47.5" y="150"/><ellipse cx="171.25" cy="166" fill="#ADD1B2" rx="11" ry="11" style="stroke:#181818;stroke-width:1.0;"/><path d="M174.0156,161.875 Q174.1719,161.6563 174.3594,161.5469 Q174.5469,161.4375 174.7656,161.4375 Q175.1406,161.4375 175.375,161.6953 Q175.6094,161.9531 175.6094,162.5625 L175.6094,164.0156 Q175.6094,164.625 175.375,164.8906 Q175.1406,165.1563 174.7656,165.1563 Q174.4219,165.1563 174.2188,164.9531 Q174.0156,164.7656 173.9063,164.25 Q173.8594,163.8906 173.6719,163.7031 Q173.3438,163.3281 172.7344,163.1094 Q172.125,162.8906 171.5,162.8906 Q170.7344,162.8906 170.1016,163.2188 Q169.4688,163.5469 168.9766,164.2969 Q168.4844,165.0469 168.4844,166.0781 L168.4844,167.1719 Q168.4844,168.4063 169.375,169.2266 Q170.2656,170.0469 171.8594,170.0469 Q172.7969,170.0469 173.4531,169.7969 Q173.8438,169.6406 174.2656,169.2031 Q174.5313,168.9375 174.6797,168.8594 Q174.8281,168.7813 175.0313,168.7813 Q175.3594,168.7813 175.6172,169.0391 Q175.875,169.2969 175.875,169.6406 Q175.875,169.9844 175.5313,170.3906 Q175.0313,170.9688 174.2344,171.2969 Q173.1563,171.75 171.8594,171.75 Q170.3438,171.75 169.1406,171.125 Q168.1563,170.625 167.4688,169.5547 Q166.7813,168.4844 166.7813,167.2031 L166.7813,166.0469 Q166.7813,164.7188 167.3984,163.5703 Q168.0156,162.4219 169.1094,161.8047 Q170.2031,161.1875 171.4375,161.1875 Q172.1719,161.1875 172.8203,161.3516 Q173.4688,161.5156 174.0156,161.875 Z " fill="#000000"/><text fill="#000000" font-family="sans-serif" font-size="14" lengthAdjust="spacing" textLength="76" x="191.75" y="171.7285">AuthService</text><line style="stroke:#181818;stroke-width:0.5;" x1="48.5" x2="378.5" y1="182" y2="182"/><ellipse cx="58.5" cy="193" fill="none" rx="3" ry="3" style="stroke:#038048;stroke-width:1.0;"/><text fill="#000000" font-family="sans-serif" font-size="14" lengthAdjust="spacing" textLength="169" x="67.5" y="200.5332">CurrentUser : IUser? «get»</text><ellipse cx="58.5" cy="210.6094" fill="none" rx="3" ry="3" style="stroke:#038048;stroke-width:1.0;"/><text fill="#000000" font-family="sans-serif" font-size="14" lengthAdjust="spacing" textLength="137" x="67.5" y="218.1426">IsLogged : bool «get»</text><line style="stroke:#181818;stroke-width:0.5;" x1="48.5" x2="378.5" y1="225.2188" y2="225.2188"/><ellipse cx="58.5" cy="236.2188" fill="#84BE84" rx="3" ry="3" style="stroke:#038048;stroke-width:1.0;"/><text fill="#000000" font-family="sans-serif" font-size="14" lengthAdjust="spacing" textLength="306" x="67.5" y="243.752">AuthService(eventAggregator:IEventAggregator)</text></g><!--MD5=[e72eb0a9ceaa651823bd7095dace00ee]
class UserPreLoginEvent--><g id="elem_UserPreLoginEvent"><rect codeLine="31" fill="#F1F1F1" height="48" id="UserPreLoginEvent" rx="2.5" ry="2.5" style="stroke:#181818;stroke-width:0.5;" width="214" x="452.5" y="24.5"/><ellipse cx="467.5" cy="40.5" fill="#ADD1B2" rx="11" ry="11" style="stroke:#181818;stroke-width:1.0;"/><path d="M470.2656,36.375 Q470.4219,36.1563 470.6094,36.0469 Q470.7969,35.9375 471.0156,35.9375 Q471.3906,35.9375 471.625,36.1953 Q471.8594,36.4531 471.8594,37.0625 L471.8594,38.5156 Q471.8594,39.125 471.625,39.3906 Q471.3906,39.6563 471.0156,39.6563 Q470.6719,39.6563 470.4688,39.4531 Q470.2656,39.2656 470.1563,38.75 Q470.1094,38.3906 469.9219,38.2031 Q469.5938,37.8281 468.9844,37.6094 Q468.375,37.3906 467.75,37.3906 Q466.9844,37.3906 466.3516,37.7188 Q465.7188,38.0469 465.2266,38.7969 Q464.7344,39.5469 464.7344,40.5781 L464.7344,41.6719 Q464.7344,42.9063 465.625,43.7266 Q466.5156,44.5469 468.1094,44.5469 Q469.0469,44.5469 469.7031,44.2969 Q470.0938,44.1406 470.5156,43.7031 Q470.7813,43.4375 470.9297,43.3594 Q471.0781,43.2813 471.2813,43.2813 Q471.6094,43.2813 471.8672,43.5391 Q472.125,43.7969 472.125,44.1406 Q472.125,44.4844 471.7813,44.8906 Q471.2813,45.4688 470.4844,45.7969 Q469.4063,46.25 468.1094,46.25 Q466.5938,46.25 465.3906,45.625 Q464.4063,45.125 463.7188,44.0547 Q463.0313,42.9844 463.0313,41.7031 L463.0313,40.5469 Q463.0313,39.2188 463.6484,38.0703 Q464.2656,36.9219 465.3594,36.3047 Q466.4531,35.6875 467.6875,35.6875 Q468.4219,35.6875 469.0703,35.8516 Q469.7188,36.0156 470.2656,36.375 Z " fill="#000000"/><text fill="#000000" font-family="sans-serif" font-size="14" lengthAdjust="spacing" textLength="122" x="481.5" y="46.2285">UserPreLoginEvent</text><rect fill="#FFFFFF" height="17.0938" style="stroke:#000000;stroke-width:1.0;stroke-dasharray:2.0,2.0;" width="58" x="611.5" y="21.5"/><text fill="#000000" font-family="sans-serif" font-size="12" font-style="italic" lengthAdjust="spacing" textLength="56" x="612.5" y="34.957">LoginArgs</text><line style="stroke:#181818;stroke-width:0.5;" x1="453.5" x2="665.5" y1="56.5" y2="56.5"/><line style="stroke:#181818;stroke-width:0.5;" x1="453.5" x2="665.5" y1="64.5" y2="64.5"/></g><!--MD5=[93873aaa235a12aa55d9f048fd5b7be5]
link LoginArgs to LoginPhase--><g id="link_LoginArgs_LoginPhase"><path codeLine="17" d="M559.5,233.81 C559.5,260.91 559.5,300.19 559.5,332.2 " fill="none" id="LoginArgs-to-LoginPhase" style="stroke:#181818;stroke-width:1.0;"/><polygon fill="#181818" points="559.5,337.27,563.5,328.27,559.5,332.27,555.5,328.27,559.5,337.27" style="stroke:#181818;stroke-width:1.0;"/><text fill="#000000" font-family="sans-serif" font-size="13" lengthAdjust="spacing" textLength="37" x="519.8984" y="326.543">Phase</text></g><!--MD5=[906e9fd5cfa7aa9d80d87465e36a3825]
link LoginArgs to IUser--><g id="link_LoginArgs_IUser"><path codeLine="18" d="M499.63,233.6 C458.13,255.85 401.18,286.38 349.01,314.35 " fill="none" id="LoginArgs-to-IUser" style="stroke:#181818;stroke-width:1.0;"/><polygon fill="#181818" points="344.3,316.88,354.1214,316.1445,348.7046,314.5138,350.3354,309.097,344.3,316.88" style="stroke:#181818;stroke-width:1.0;"/><text fill="#000000" font-family="sans-serif" font-size="13" lengthAdjust="spacing" textLength="27" x="352.1914" y="310.0673">User</text></g><!--MD5=[0b4613fa50959d9b1ee50ee42a1dc575]
link IAuthService to IUser--><g id="link_IAuthService_IUser"><path codeLine="23" d="M64.92,90.02 C50.88,107.1 36.77,128.1 29.5,150 C15.36,192.6 9.28,210.92 29.5,251 C41.16,274.11 58.8,294.26 78.62,311.47 " fill="none" id="IAuthService-to-IUser" style="stroke:#181818;stroke-width:1.0;"/><polygon fill="#181818" points="82.62,314.88,78.3541,306.0029,78.8107,311.6413,73.1723,312.0979,82.62,314.88" style="stroke:#181818;stroke-width:1.0;"/><text fill="#000000" font-family="sans-serif" font-size="13" lengthAdjust="spacing" textLength="69" x="6.1262" y="308.7151">LoggedUser</text></g><!--MD5=[d334e2be6e8837c9aa582d04c03a336d]
reverse link IAuthService to AuthService--><g id="link_IAuthService_AuthService"><path codeLine="29" d="M145.78,106.31 C156.18,120.61 167.25,135.85 177.37,149.78 " fill="none" id="IAuthService-backto-AuthService" style="stroke:#181818;stroke-width:1.0;"/><polygon fill="none" points="140.09,110.39,134,90.09,151.42,102.16,140.09,110.39" style="stroke:#181818;stroke-width:1.0;"/></g><!--MD5=[66b20ba7ff09cebb91dff1fcf17c5a7d]
link AuthService to IUser--><g id="link_AuthService_IUser"><path codeLine="30" d="M213.5,251.21 C213.5,267.99 213.5,287.17 213.5,305.74 " fill="none" id="AuthService-to-IUser" style="stroke:#181818;stroke-width:1.0;"/><polygon fill="#181818" points="213.5,310.95,217.5,301.95,213.5,305.95,209.5,301.95,213.5,310.95" style="stroke:#181818;stroke-width:1.0;"/><text fill="#000000" font-family="sans-serif" font-size="13" lengthAdjust="spacing" textLength="69" x="141.1039" y="300.1072">LoggedUser</text></g><!--MD5=[66e0bc898012f39b3b0b6ed024c6c033]
link UserPreLoginEvent to LoginArgs--><g id="link_UserPreLoginEvent_LoginArgs"><path codeLine="32" d="M559.5,84.61 C559.5,84.61 559.5,132.51 559.5,154.42 " fill="none" id="UserPreLoginEvent-LoginArgs" style="stroke:#181818;stroke-width:1.0;"/><polygon fill="#181818" points="559.5,167.45,563.5,158.45,559.5,162.45,555.5,158.45,559.5,167.45" style="stroke:#181818;stroke-width:1.0;"/><line style="stroke:#181818;stroke-width:1.0;" x1="559.5" x2="559.5" y1="162.45" y2="154.45"/><polygon fill="none" points="559.5,72.61,555.5,78.61,559.5,84.61,563.5,78.61,559.5,72.61" style="stroke:#181818;stroke-width:1.0;"/></g><!--MD5=[d9db5d88052f4452591a79675b553cbf]
@startuml
class LoginArgs {
    + LoginArgs(user:IUser, phase:LoginPhase)
}
enum LoginPhase {
    Request,
    Response,
    Success,
}
interface IUser {
    Id : int <<get>> <<set>>
    Login : string <<get>> <<set>>
    Password : string <<get>> <<set>>
    Name : string <<get>> <<set>>
    Surname : string <<get>> <<set>>
    CheckPassword(password:string) : bool
}
LoginArgs - -> "Phase" LoginPhase
LoginArgs - -> "User" IUser
interface IAuthService {
    + CurrentUser : IUser? <<get>>
    + IsLogged : bool <<get>>
}
IAuthService - -> "LoggedUser" IUser
class AuthService {
    + CurrentUser : IUser? <<get>>
    + IsLogged : bool <<get>>
    + AuthService(eventAggregator:IEventAggregator)
}
IAuthService <|- - AuthService
AuthService - -> "LoggedUser" IUser
class UserPreLoginEvent <LoginArgs>
UserPreLoginEvent o-d-> LoginArgs
@enduml

PlantUML version 1.2022.6(Tue Jun 21 19:34:49 CEST 2022)
(GPL source distribution)
Java Runtime: Java(TM) SE Runtime Environment
JVM: Java HotSpot(TM) 64-Bit Server VM
Default Encoding: Cp1250
Language: pl
Country: PL
--></g></svg>