<?xml version="1.0" encoding="UTF-8" standalone="no"?><svg xmlns="http://www.w3.org/2000/svg" xmlns:xlink="http://www.w3.org/1999/xlink" contentStyleType="text/css" height="488px" preserveAspectRatio="none" style="width:1346px;height:488px;background:#FFFFFF;" version="1.1" viewBox="0 0 1346 488" width="1346px" zoomAndPan="magnify"><defs/><g><!--MD5=[ff6d5d9818be73dd892af36c7318726e]
class Base64ToImageConverter--><g id="elem_Base64ToImageConverter"><rect codeLine="1" fill="#F1F1F1" height="118.4375" id="Base64ToImageConverter" rx="2.5" ry="2.5" style="stroke:#181818;stroke-width:0.5;" width="475" x="864" y="185"/><ellipse cx="1014.25" cy="201" fill="#ADD1B2" rx="11" ry="11" style="stroke:#181818;stroke-width:1.0;"/><path d="M1017.0156,196.875 Q1017.1719,196.6563 1017.3594,196.5469 Q1017.5469,196.4375 1017.7656,196.4375 Q1018.1406,196.4375 1018.375,196.6953 Q1018.6094,196.9531 1018.6094,197.5625 L1018.6094,199.0156 Q1018.6094,199.625 1018.375,199.8906 Q1018.1406,200.1563 1017.7656,200.1563 Q1017.4219,200.1563 1017.2188,199.9531 Q1017.0156,199.7656 1016.9063,199.25 Q1016.8594,198.8906 1016.6719,198.7031 Q1016.3438,198.3281 1015.7344,198.1094 Q1015.125,197.8906 1014.5,197.8906 Q1013.7344,197.8906 1013.1016,198.2188 Q1012.4688,198.5469 1011.9766,199.2969 Q1011.4844,200.0469 1011.4844,201.0781 L1011.4844,202.1719 Q1011.4844,203.4063 1012.375,204.2266 Q1013.2656,205.0469 1014.8594,205.0469 Q1015.7969,205.0469 1016.4531,204.7969 Q1016.8438,204.6406 1017.2656,204.2031 Q1017.5313,203.9375 1017.6797,203.8594 Q1017.8281,203.7813 1018.0313,203.7813 Q1018.3594,203.7813 1018.6172,204.0391 Q1018.875,204.2969 1018.875,204.6406 Q1018.875,204.9844 1018.5313,205.3906 Q1018.0313,205.9688 1017.2344,206.2969 Q1016.1563,206.75 1014.8594,206.75 Q1013.3438,206.75 1012.1406,206.125 Q1011.1563,205.625 1010.4688,204.5547 Q1009.7813,203.4844 1009.7813,202.2031 L1009.7813,201.0469 Q1009.7813,199.7188 1010.3984,198.5703 Q1011.0156,197.4219 1012.1094,196.8047 Q1013.2031,196.1875 1014.4375,196.1875 Q1015.1719,196.1875 1015.8203,196.3516 Q1016.4688,196.5156 1017.0156,196.875 Z " fill="#000000"/><text fill="#000000" font-family="sans-serif" font-size="14" lengthAdjust="spacing" textLength="166" x="1034.75" y="206.7285">Base64ToImageConverter</text><line style="stroke:#181818;stroke-width:0.5;" x1="865" x2="1338" y1="217" y2="217"/><rect fill="none" height="6" style="stroke:#C82930;stroke-width:1.0;" width="6" x="872" y="225"/><text fill="#000000" font-family="sans-serif" font-size="14" lengthAdjust="spacing" text-decoration="underline" textLength="254" x="884" y="235.5332">_converter : Base64ToImageConverter?</text><line style="stroke:#181818;stroke-width:0.5;" x1="865" x2="1338" y1="242.6094" y2="242.6094"/><ellipse cx="875" cy="253.6094" fill="#84BE84" rx="3" ry="3" style="stroke:#038048;stroke-width:1.0;"/><text fill="#000000" font-family="sans-serif" font-size="14" lengthAdjust="spacing" textLength="421" x="884" y="261.1426">«override» ProvideValue(serviceProvider:IServiceProvider) : object</text><ellipse cx="875" cy="271.2188" fill="#84BE84" rx="3" ry="3" style="stroke:#038048;stroke-width:1.0;"/><text fill="#000000" font-family="sans-serif" font-size="14" lengthAdjust="spacing" textLength="418" x="884" y="278.752">Convert(value:object, Type, parameter:object, CultureInfo) : object</text><ellipse cx="875" cy="288.8281" fill="#84BE84" rx="3" ry="3" style="stroke:#038048;stroke-width:1.0;"/><text fill="#000000" font-family="sans-serif" font-size="14" lengthAdjust="spacing" textLength="449" x="884" y="296.3613">ConvertBack(value:object, Type, parameter:object, CultureInfo) : object</text></g><!--MD5=[784d9359512f76634d968dc3aa0b67d3]
class MarkupExtension--><g id="elem_MarkupExtension"><rect codeLine="42" fill="#F1F1F1" height="48" id="MarkupExtension" rx="2.5" ry="2.5" style="stroke:#181818;stroke-width:0.5;" width="142" x="686.5" y="220"/><ellipse cx="701.5" cy="236" fill="#A9DCDF" rx="11" ry="11" style="stroke:#181818;stroke-width:1.0;"/><path d="M703.6875,237.7656 L699.5469,237.7656 L699.125,238.7969 L699.5469,238.7969 Q700.1563,238.7969 700.4219,239.0313 Q700.6875,239.2656 700.6875,239.6563 Q700.6875,240.0313 700.4219,240.2656 Q700.1563,240.5 699.5469,240.5 L697.25,240.5 Q696.6406,240.5 696.3828,240.2656 Q696.125,240.0313 696.125,239.6406 Q696.125,239.2656 696.3984,239.0234 Q696.6719,238.7813 697.2969,238.7969 L699.9688,232.1406 L698.8594,232.1406 Q698.25,232.1406 697.9844,231.9063 Q697.7188,231.6719 697.7188,231.2813 Q697.7188,230.9063 697.9844,230.6719 Q698.25,230.4375 698.8594,230.4375 L702.5313,230.4375 L705.9219,238.7969 Q706.5156,238.7969 706.7031,238.9375 Q707.0938,239.2031 707.0938,239.6563 Q707.0938,240.0313 706.8359,240.2656 Q706.5781,240.5 705.9688,240.5 L703.6719,240.5 Q703.0625,240.5 702.7969,240.2656 Q702.5313,240.0313 702.5313,239.6406 Q702.5313,239.2656 702.7969,239.0313 Q703.0625,238.7969 703.6719,238.7969 L704.0938,238.7969 L703.6875,237.7656 Z M702.9688,236.0625 L701.6094,232.6875 L700.2344,236.0625 L702.9688,236.0625 Z " fill="#000000"/><text fill="#000000" font-family="sans-serif" font-size="14" font-style="italic" lengthAdjust="spacing" textLength="110" x="715.5" y="241.7285">MarkupExtension</text><line style="stroke:#181818;stroke-width:0.5;" x1="687.5" x2="827.5" y1="252" y2="252"/><line style="stroke:#181818;stroke-width:0.5;" x1="687.5" x2="827.5" y1="260" y2="260"/></g><!--MD5=[0466482292fe990ff730323dab7dddac]
class IValueConverter--><g id="elem_IValueConverter"><rect codeLine="41" fill="#F1F1F1" height="48" id="IValueConverter" rx="2.5" ry="2.5" style="stroke:#181818;stroke-width:0.5;" width="134" x="517.5" y="220"/><ellipse cx="532.5" cy="236" fill="#B4A7E5" rx="11" ry="11" style="stroke:#181818;stroke-width:1.0;"/><path d="M533.4531,232.6406 L533.4531,239.2969 L535.1719,239.2969 Q535.7813,239.2969 536.0469,239.5313 Q536.3125,239.7656 536.3125,240.1563 Q536.3125,240.5313 536.0469,240.7656 Q535.7813,241 535.1719,241 L530.0313,241 Q529.4219,241 529.1563,240.7656 Q528.8906,240.5313 528.8906,240.1406 Q528.8906,239.7656 529.1563,239.5313 Q529.4219,239.2969 530.0313,239.2969 L531.75,239.2969 L531.75,232.6406 L530.0313,232.6406 Q529.4219,232.6406 529.1563,232.4063 Q528.8906,232.1719 528.8906,231.7813 Q528.8906,231.4063 529.1563,231.1719 Q529.4219,230.9375 530.0313,230.9375 L535.1719,230.9375 Q535.7813,230.9375 536.0469,231.1719 Q536.3125,231.4063 536.3125,231.7813 Q536.3125,232.1719 536.0469,232.4063 Q535.7813,232.6406 535.1719,232.6406 L533.4531,232.6406 Z " fill="#000000"/><text fill="#000000" font-family="sans-serif" font-size="14" font-style="italic" lengthAdjust="spacing" textLength="102" x="546.5" y="241.7285">IValueConverter</text><line style="stroke:#181818;stroke-width:0.5;" x1="518.5" x2="650.5" y1="252" y2="252"/><line style="stroke:#181818;stroke-width:0.5;" x1="518.5" x2="650.5" y1="260" y2="260"/></g><!--MD5=[025db61ea2dc7fc62b0aa9baaa4a02a8]
class BytesToImageConverter--><g id="elem_BytesToImageConverter"><rect codeLine="9" fill="#F1F1F1" height="118.4375" id="BytesToImageConverter" rx="2.5" ry="2.5" style="stroke:#181818;stroke-width:0.5;" width="475" x="179" y="363"/><ellipse cx="335.75" cy="379" fill="#ADD1B2" rx="11" ry="11" style="stroke:#181818;stroke-width:1.0;"/><path d="M338.5156,374.875 Q338.6719,374.6563 338.8594,374.5469 Q339.0469,374.4375 339.2656,374.4375 Q339.6406,374.4375 339.875,374.6953 Q340.1094,374.9531 340.1094,375.5625 L340.1094,377.0156 Q340.1094,377.625 339.875,377.8906 Q339.6406,378.1563 339.2656,378.1563 Q338.9219,378.1563 338.7188,377.9531 Q338.5156,377.7656 338.4063,377.25 Q338.3594,376.8906 338.1719,376.7031 Q337.8438,376.3281 337.2344,376.1094 Q336.625,375.8906 336,375.8906 Q335.2344,375.8906 334.6016,376.2188 Q333.9688,376.5469 333.4766,377.2969 Q332.9844,378.0469 332.9844,379.0781 L332.9844,380.1719 Q332.9844,381.4063 333.875,382.2266 Q334.7656,383.0469 336.3594,383.0469 Q337.2969,383.0469 337.9531,382.7969 Q338.3438,382.6406 338.7656,382.2031 Q339.0313,381.9375 339.1797,381.8594 Q339.3281,381.7813 339.5313,381.7813 Q339.8594,381.7813 340.1172,382.0391 Q340.375,382.2969 340.375,382.6406 Q340.375,382.9844 340.0313,383.3906 Q339.5313,383.9688 338.7344,384.2969 Q337.6563,384.75 336.3594,384.75 Q334.8438,384.75 333.6406,384.125 Q332.6563,383.625 331.9688,382.5547 Q331.2813,381.4844 331.2813,380.2031 L331.2813,379.0469 Q331.2813,377.7188 331.8984,376.5703 Q332.5156,375.4219 333.6094,374.8047 Q334.7031,374.1875 335.9375,374.1875 Q336.6719,374.1875 337.3203,374.3516 Q337.9688,374.5156 338.5156,374.875 Z " fill="#000000"/><text fill="#000000" font-family="sans-serif" font-size="14" lengthAdjust="spacing" textLength="153" x="356.25" y="384.7285">BytesToImageConverter</text><line style="stroke:#181818;stroke-width:0.5;" x1="180" x2="653" y1="395" y2="395"/><rect fill="none" height="6" style="stroke:#C82930;stroke-width:1.0;" width="6" x="187" y="403"/><text fill="#000000" font-family="sans-serif" font-size="14" lengthAdjust="spacing" text-decoration="underline" textLength="241" x="199" y="413.5332">_converter : BytesToImageConverter?</text><line style="stroke:#181818;stroke-width:0.5;" x1="180" x2="653" y1="420.6094" y2="420.6094"/><ellipse cx="190" cy="431.6094" fill="#84BE84" rx="3" ry="3" style="stroke:#038048;stroke-width:1.0;"/><text fill="#000000" font-family="sans-serif" font-size="14" lengthAdjust="spacing" textLength="421" x="199" y="439.1426">«override» ProvideValue(serviceProvider:IServiceProvider) : object</text><ellipse cx="190" cy="449.2188" fill="#84BE84" rx="3" ry="3" style="stroke:#038048;stroke-width:1.0;"/><text fill="#000000" font-family="sans-serif" font-size="14" lengthAdjust="spacing" textLength="418" x="199" y="456.752">Convert(value:object, Type, parameter:object, CultureInfo) : object</text><ellipse cx="190" cy="466.8281" fill="#84BE84" rx="3" ry="3" style="stroke:#038048;stroke-width:1.0;"/><text fill="#000000" font-family="sans-serif" font-size="14" lengthAdjust="spacing" textLength="449" x="199" y="474.3613">ConvertBack(value:object, Type, parameter:object, CultureInfo) : object</text></g><!--MD5=[2fa6c7f3fa3d55caa03ae399e1e4e46f]
class DebugConverter--><g id="elem_DebugConverter"><rect codeLine="17" fill="#F1F1F1" height="118.4375" id="DebugConverter" rx="2.5" ry="2.5" style="stroke:#181818;stroke-width:0.5;" width="475" x="433" y="7"/><ellipse cx="613.75" cy="23" fill="#ADD1B2" rx="11" ry="11" style="stroke:#181818;stroke-width:1.0;"/><path d="M616.5156,18.875 Q616.6719,18.6563 616.8594,18.5469 Q617.0469,18.4375 617.2656,18.4375 Q617.6406,18.4375 617.875,18.6953 Q618.1094,18.9531 618.1094,19.5625 L618.1094,21.0156 Q618.1094,21.625 617.875,21.8906 Q617.6406,22.1563 617.2656,22.1563 Q616.9219,22.1563 616.7188,21.9531 Q616.5156,21.7656 616.4063,21.25 Q616.3594,20.8906 616.1719,20.7031 Q615.8438,20.3281 615.2344,20.1094 Q614.625,19.8906 614,19.8906 Q613.2344,19.8906 612.6016,20.2188 Q611.9688,20.5469 611.4766,21.2969 Q610.9844,22.0469 610.9844,23.0781 L610.9844,24.1719 Q610.9844,25.4063 611.875,26.2266 Q612.7656,27.0469 614.3594,27.0469 Q615.2969,27.0469 615.9531,26.7969 Q616.3438,26.6406 616.7656,26.2031 Q617.0313,25.9375 617.1797,25.8594 Q617.3281,25.7813 617.5313,25.7813 Q617.8594,25.7813 618.1172,26.0391 Q618.375,26.2969 618.375,26.6406 Q618.375,26.9844 618.0313,27.3906 Q617.5313,27.9688 616.7344,28.2969 Q615.6563,28.75 614.3594,28.75 Q612.8438,28.75 611.6406,28.125 Q610.6563,27.625 609.9688,26.5547 Q609.2813,25.4844 609.2813,24.2031 L609.2813,23.0469 Q609.2813,21.7188 609.8984,20.5703 Q610.5156,19.4219 611.6094,18.8047 Q612.7031,18.1875 613.9375,18.1875 Q614.6719,18.1875 615.3203,18.3516 Q615.9688,18.5156 616.5156,18.875 Z " fill="#000000"/><text fill="#000000" font-family="sans-serif" font-size="14" lengthAdjust="spacing" textLength="105" x="634.25" y="28.7285">DebugConverter</text><line style="stroke:#181818;stroke-width:0.5;" x1="434" x2="907" y1="39" y2="39"/><rect fill="none" height="6" style="stroke:#C82930;stroke-width:1.0;" width="6" x="441" y="47"/><text fill="#000000" font-family="sans-serif" font-size="14" lengthAdjust="spacing" text-decoration="underline" textLength="193" x="453" y="57.5332">_converter : DebugConverter?</text><line style="stroke:#181818;stroke-width:0.5;" x1="434" x2="907" y1="64.6094" y2="64.6094"/><ellipse cx="444" cy="75.6094" fill="#84BE84" rx="3" ry="3" style="stroke:#038048;stroke-width:1.0;"/><text fill="#000000" font-family="sans-serif" font-size="14" lengthAdjust="spacing" textLength="421" x="453" y="83.1426">«override» ProvideValue(serviceProvider:IServiceProvider) : object</text><ellipse cx="444" cy="93.2188" fill="#84BE84" rx="3" ry="3" style="stroke:#038048;stroke-width:1.0;"/><text fill="#000000" font-family="sans-serif" font-size="14" lengthAdjust="spacing" textLength="418" x="453" y="100.752">Convert(value:object, Type, parameter:object, CultureInfo) : object</text><ellipse cx="444" cy="110.8281" fill="#84BE84" rx="3" ry="3" style="stroke:#038048;stroke-width:1.0;"/><text fill="#000000" font-family="sans-serif" font-size="14" lengthAdjust="spacing" textLength="449" x="453" y="118.3613">ConvertBack(value:object, Type, parameter:object, CultureInfo) : object</text></g><!--MD5=[3af5e9066c3319fd8e68b8459ddb85fb]
class PriceConverter--><g id="elem_PriceConverter"><rect codeLine="25" fill="#F1F1F1" height="118.4375" id="PriceConverter" rx="2.5" ry="2.5" style="stroke:#181818;stroke-width:0.5;" width="475" x="7" y="185"/><ellipse cx="192.75" cy="201" fill="#ADD1B2" rx="11" ry="11" style="stroke:#181818;stroke-width:1.0;"/><path d="M195.5156,196.875 Q195.6719,196.6563 195.8594,196.5469 Q196.0469,196.4375 196.2656,196.4375 Q196.6406,196.4375 196.875,196.6953 Q197.1094,196.9531 197.1094,197.5625 L197.1094,199.0156 Q197.1094,199.625 196.875,199.8906 Q196.6406,200.1563 196.2656,200.1563 Q195.9219,200.1563 195.7188,199.9531 Q195.5156,199.7656 195.4063,199.25 Q195.3594,198.8906 195.1719,198.7031 Q194.8438,198.3281 194.2344,198.1094 Q193.625,197.8906 193,197.8906 Q192.2344,197.8906 191.6016,198.2188 Q190.9688,198.5469 190.4766,199.2969 Q189.9844,200.0469 189.9844,201.0781 L189.9844,202.1719 Q189.9844,203.4063 190.875,204.2266 Q191.7656,205.0469 193.3594,205.0469 Q194.2969,205.0469 194.9531,204.7969 Q195.3438,204.6406 195.7656,204.2031 Q196.0313,203.9375 196.1797,203.8594 Q196.3281,203.7813 196.5313,203.7813 Q196.8594,203.7813 197.1172,204.0391 Q197.375,204.2969 197.375,204.6406 Q197.375,204.9844 197.0313,205.3906 Q196.5313,205.9688 195.7344,206.2969 Q194.6563,206.75 193.3594,206.75 Q191.8438,206.75 190.6406,206.125 Q189.6563,205.625 188.9688,204.5547 Q188.2813,203.4844 188.2813,202.2031 L188.2813,201.0469 Q188.2813,199.7188 188.8984,198.5703 Q189.5156,197.4219 190.6094,196.8047 Q191.7031,196.1875 192.9375,196.1875 Q193.6719,196.1875 194.3203,196.3516 Q194.9688,196.5156 195.5156,196.875 Z " fill="#000000"/><text fill="#000000" font-family="sans-serif" font-size="14" lengthAdjust="spacing" textLength="95" x="213.25" y="206.7285">PriceConverter</text><line style="stroke:#181818;stroke-width:0.5;" x1="8" x2="481" y1="217" y2="217"/><rect fill="none" height="6" style="stroke:#C82930;stroke-width:1.0;" width="6" x="15" y="225"/><text fill="#000000" font-family="sans-serif" font-size="14" lengthAdjust="spacing" text-decoration="underline" textLength="183" x="27" y="235.5332">_converter : PriceConverter?</text><line style="stroke:#181818;stroke-width:0.5;" x1="8" x2="481" y1="242.6094" y2="242.6094"/><ellipse cx="18" cy="253.6094" fill="#84BE84" rx="3" ry="3" style="stroke:#038048;stroke-width:1.0;"/><text fill="#000000" font-family="sans-serif" font-size="14" lengthAdjust="spacing" textLength="421" x="27" y="261.1426">«override» ProvideValue(serviceProvider:IServiceProvider) : object</text><ellipse cx="18" cy="271.2188" fill="#84BE84" rx="3" ry="3" style="stroke:#038048;stroke-width:1.0;"/><text fill="#000000" font-family="sans-serif" font-size="14" lengthAdjust="spacing" textLength="418" x="27" y="278.752">Convert(value:object, Type, parameter:object, CultureInfo) : object</text><ellipse cx="18" cy="288.8281" fill="#84BE84" rx="3" ry="3" style="stroke:#038048;stroke-width:1.0;"/><text fill="#000000" font-family="sans-serif" font-size="14" lengthAdjust="spacing" textLength="449" x="27" y="296.3613">ConvertBack(value:object, Type, parameter:object, CultureInfo) : object</text></g><!--MD5=[e5331e1a6f6316568bb8c56739c04f49]
class ToStringConverter--><g id="elem_ToStringConverter"><rect codeLine="33" fill="#F1F1F1" height="118.4375" id="ToStringConverter" rx="2.5" ry="2.5" style="stroke:#181818;stroke-width:0.5;" width="475" x="689" y="363"/><ellipse cx="863.75" cy="379" fill="#ADD1B2" rx="11" ry="11" style="stroke:#181818;stroke-width:1.0;"/><path d="M866.5156,374.875 Q866.6719,374.6563 866.8594,374.5469 Q867.0469,374.4375 867.2656,374.4375 Q867.6406,374.4375 867.875,374.6953 Q868.1094,374.9531 868.1094,375.5625 L868.1094,377.0156 Q868.1094,377.625 867.875,377.8906 Q867.6406,378.1563 867.2656,378.1563 Q866.9219,378.1563 866.7188,377.9531 Q866.5156,377.7656 866.4063,377.25 Q866.3594,376.8906 866.1719,376.7031 Q865.8438,376.3281 865.2344,376.1094 Q864.625,375.8906 864,375.8906 Q863.2344,375.8906 862.6016,376.2188 Q861.9688,376.5469 861.4766,377.2969 Q860.9844,378.0469 860.9844,379.0781 L860.9844,380.1719 Q860.9844,381.4063 861.875,382.2266 Q862.7656,383.0469 864.3594,383.0469 Q865.2969,383.0469 865.9531,382.7969 Q866.3438,382.6406 866.7656,382.2031 Q867.0313,381.9375 867.1797,381.8594 Q867.3281,381.7813 867.5313,381.7813 Q867.8594,381.7813 868.1172,382.0391 Q868.375,382.2969 868.375,382.6406 Q868.375,382.9844 868.0313,383.3906 Q867.5313,383.9688 866.7344,384.2969 Q865.6563,384.75 864.3594,384.75 Q862.8438,384.75 861.6406,384.125 Q860.6563,383.625 859.9688,382.5547 Q859.2813,381.4844 859.2813,380.2031 L859.2813,379.0469 Q859.2813,377.7188 859.8984,376.5703 Q860.5156,375.4219 861.6094,374.8047 Q862.7031,374.1875 863.9375,374.1875 Q864.6719,374.1875 865.3203,374.3516 Q865.9688,374.5156 866.5156,374.875 Z " fill="#000000"/><text fill="#000000" font-family="sans-serif" font-size="14" lengthAdjust="spacing" textLength="117" x="884.25" y="384.7285">ToStringConverter</text><line style="stroke:#181818;stroke-width:0.5;" x1="690" x2="1163" y1="395" y2="395"/><rect fill="none" height="6" style="stroke:#C82930;stroke-width:1.0;" width="6" x="697" y="403"/><text fill="#000000" font-family="sans-serif" font-size="14" lengthAdjust="spacing" text-decoration="underline" textLength="205" x="709" y="413.5332">_converter : ToStringConverter?</text><line style="stroke:#181818;stroke-width:0.5;" x1="690" x2="1163" y1="420.6094" y2="420.6094"/><ellipse cx="700" cy="431.6094" fill="#84BE84" rx="3" ry="3" style="stroke:#038048;stroke-width:1.0;"/><text fill="#000000" font-family="sans-serif" font-size="14" lengthAdjust="spacing" textLength="421" x="709" y="439.1426">«override» ProvideValue(serviceProvider:IServiceProvider) : object</text><ellipse cx="700" cy="449.2188" fill="#84BE84" rx="3" ry="3" style="stroke:#038048;stroke-width:1.0;"/><text fill="#000000" font-family="sans-serif" font-size="14" lengthAdjust="spacing" textLength="418" x="709" y="456.752">Convert(value:object, Type, parameter:object, CultureInfo) : object</text><ellipse cx="700" cy="466.8281" fill="#84BE84" rx="3" ry="3" style="stroke:#038048;stroke-width:1.0;"/><text fill="#000000" font-family="sans-serif" font-size="14" lengthAdjust="spacing" textLength="449" x="709" y="474.3613">ConvertBack(value:object, Type, parameter:object, CultureInfo) : object</text></g><!--MD5=[b20e4cc258a9b1ea6fb97c14d73c1285]
reverse link MarkupExtension to Base64ToImageConverter--><g id="link_MarkupExtension_Base64ToImageConverter"><path codeLine="7" d="M848.77,244 C853.81,244 858.85,244 863.88,244 " fill="none" id="MarkupExtension-backto-Base64ToImageConverter" style="stroke:#181818;stroke-width:1.0;"/><polygon fill="none" points="848.72,251,828.72,244,848.72,237,848.72,251" style="stroke:#181818;stroke-width:1.0;"/></g><!--MD5=[9f56a0ec26382cbca74c3b3ceb8a5de6]
reverse link IValueConverter to Base64ToImageConverter--><g id="link_IValueConverter_Base64ToImageConverter"><path codeLine="8" d="M616.99,204.87 C635.33,185.91 659.96,165.1 687,155 C784.73,118.49 901.32,149.7 985.91,184.83 " fill="none" id="IValueConverter-backto-Base64ToImageConverter" style="stroke:#181818;stroke-width:1.0;"/><polygon fill="none" points="622.08,209.68,603.44,219.76,611.73,200.26,622.08,209.68" style="stroke:#181818;stroke-width:1.0;"/></g><!--MD5=[245d982c520861a5fe177572feca61a2]
reverse link MarkupExtension to BytesToImageConverter--><g id="link_MarkupExtension_BytesToImageConverter"><path codeLine="15" d="M708.12,279.36 C695.73,287.48 682.31,295.84 669.5,303 C631.74,324.1 589.56,344.83 550.63,362.88 " fill="none" id="MarkupExtension-backto-BytesToImageConverter" style="stroke:#181818;stroke-width:1.0;"/><polygon fill="none" points="704.27,273.52,724.79,268.21,712.06,285.15,704.27,273.52" style="stroke:#181818;stroke-width:1.0;"/></g><!--MD5=[082d864a5f96204189371c9dddfc85d7]
reverse link IValueConverter to BytesToImageConverter--><g id="link_IValueConverter_BytesToImageConverter"><path codeLine="16" d="M548.67,282.54 C526.4,305.87 497.3,336.35 472.08,362.77 " fill="none" id="IValueConverter-backto-BytesToImageConverter" style="stroke:#181818;stroke-width:1.0;"/><polygon fill="none" points="543.66,277.64,562.54,268.01,553.79,287.31,543.66,277.64" style="stroke:#181818;stroke-width:1.0;"/></g><!--MD5=[379fb41134fefb9ea385e02c668c08fc]
link DebugConverter to MarkupExtension--><g id="link_DebugConverter_MarkupExtension"><path codeLine="23" d="M699.23,125.12 C711.62,150.18 725.82,178.91 737.1,201.73 " fill="none" id="DebugConverter-to-MarkupExtension" style="stroke:#181818;stroke-width:1.0;"/><polygon fill="none" points="743.38,198.64,745.97,219.67,730.83,204.84,743.38,198.64" style="stroke:#181818;stroke-width:1.0;"/></g><!--MD5=[1968bf06f12b8f5eb038e0726a07f2f8]
link DebugConverter to IValueConverter--><g id="link_DebugConverter_IValueConverter"><path codeLine="24" d="M642.1,125.12 C629.92,150.05 615.96,178.62 604.83,201.39 " fill="none" id="DebugConverter-to-IValueConverter" style="stroke:#181818;stroke-width:1.0;"/><polygon fill="none" points="610.97,204.77,595.9,219.67,598.39,198.62,610.97,204.77" style="stroke:#181818;stroke-width:1.0;"/></g><!--MD5=[8c3dae1c708eac4c421a6fb7e9c42132]
link PriceConverter to MarkupExtension--><g id="link_PriceConverter_MarkupExtension"><path codeLine="31" d="M359.7,184.85 C442.62,150.4 556.27,120.01 652,155 C679.7,165.13 705.16,186.09 724.12,205.13 " fill="none" id="PriceConverter-to-MarkupExtension" style="stroke:#181818;stroke-width:1.0;"/><polygon fill="none" points="729.26,200.38,737.85,219.74,719.06,209.96,729.26,200.38" style="stroke:#181818;stroke-width:1.0;"/></g><!--MD5=[91572124e1ffdd33ee1cb8404763cd54]
link PriceConverter to IValueConverter--><g id="link_PriceConverter_IValueConverter"><path codeLine="32" d="M482.23,244 C487.27,244 492.3,244 497.34,244 " fill="none" id="PriceConverter-to-IValueConverter" style="stroke:#181818;stroke-width:1.0;"/><polygon fill="none" points="497.39,237,517.39,244,497.39,251,497.39,237" style="stroke:#181818;stroke-width:1.0;"/></g><!--MD5=[6fd034d4466a7f78f44905be8ac83946]
reverse link MarkupExtension to ToStringConverter--><g id="link_MarkupExtension_ToStringConverter"><path codeLine="39" d="M793.54,282.54 C815.95,305.87 845.22,336.35 870.59,362.77 " fill="none" id="MarkupExtension-backto-ToStringConverter" style="stroke:#181818;stroke-width:1.0;"/><polygon fill="none" points="788.4,287.28,779.59,268.01,798.5,277.59,788.4,287.28" style="stroke:#181818;stroke-width:1.0;"/></g><!--MD5=[ea42b3962fde96ed65b0452a59522a30]
reverse link IValueConverter to ToStringConverter--><g id="link_IValueConverter_ToStringConverter"><path codeLine="40" d="M632.17,279.59 C644.11,287.67 657.07,295.97 669.5,303 C707.22,324.33 749.47,344.97 788.65,362.87 " fill="none" id="IValueConverter-backto-ToStringConverter" style="stroke:#181818;stroke-width:1.0;"/><polygon fill="none" points="628.01,285.22,615.58,268.06,635.99,273.72,628.01,285.22" style="stroke:#181818;stroke-width:1.0;"/></g><!--MD5=[d0eb7c21cd8d44390ed45c77edff4255]
@startuml
class Base64ToImageConverter {
    - {static} _converter : Base64ToImageConverter?
    + <<override>> ProvideValue(serviceProvider:IServiceProvider) : object
    + Convert(value:object, Type, parameter:object, CultureInfo) : object
    + ConvertBack(value:object, Type, parameter:object, CultureInfo) : object
}
MarkupExtension <|-r- Base64ToImageConverter
IValueConverter <|-r- Base64ToImageConverter
class BytesToImageConverter {
    - {static} _converter : BytesToImageConverter?
    + <<override>> ProvideValue(serviceProvider:IServiceProvider) : object
    + Convert(value:object, Type, parameter:object, CultureInfo) : object
    + ConvertBack(value:object, Type, parameter:object, CultureInfo) : object
}
MarkupExtension <|-d- BytesToImageConverter
IValueConverter <|-d- BytesToImageConverter
class DebugConverter {
    - {static} _converter : DebugConverter?
    + <<override>> ProvideValue(serviceProvider:IServiceProvider) : object
    + Convert(value:object, Type, parameter:object, CultureInfo) : object
    + ConvertBack(value:object, Type, parameter:object, CultureInfo) : object
}
MarkupExtension <|-u- DebugConverter
IValueConverter <|-u- DebugConverter
class PriceConverter {
    - {static} _converter : PriceConverter?
    + <<override>> ProvideValue(serviceProvider:IServiceProvider) : object
    + Convert(value:object, Type, parameter:object, CultureInfo) : object
    + ConvertBack(value:object, Type, parameter:object, CultureInfo) : object
}
MarkupExtension <|-l- PriceConverter
IValueConverter <|-l- PriceConverter
class ToStringConverter {
    - {static} _converter : ToStringConverter?
    + <<override>> ProvideValue(serviceProvider:IServiceProvider) : object
    + Convert(value:object, Type, parameter:object, CultureInfo) : object
    + ConvertBack(value:object, Type, parameter:object, CultureInfo) : object
}
MarkupExtension <|-d- ToStringConverter
IValueConverter <|-d- ToStringConverter
interface IValueConverter
abstract class MarkupExtension
@enduml

PlantUML version 1.2022.6(Tue Jun 21 19:34:49 CEST 2022)
(GPL source distribution)
Java Runtime: Java(TM) SE Runtime Environment
JVM: Java HotSpot(TM) 64-Bit Server VM
Default Encoding: Cp1250
Language: pl
Country: PL
--></g></svg>