<?xml version="1.0" encoding="UTF-8" standalone="no"?><svg xmlns="http://www.w3.org/2000/svg" xmlns:xlink="http://www.w3.org/1999/xlink" contentStyleType="text/css" height="704px" preserveAspectRatio="none" style="width:585px;height:704px;background:#FFFFFF;" version="1.1" viewBox="0 0 585 704" width="585px" zoomAndPan="magnify"><defs/><g><!--MD5=[76897ce0e17bc508a9ed1d855fd51d35]
class BaseDbContext--><g id="elem_BaseDbContext"><rect codeLine="1" fill="#F1F1F1" height="118.4375" id="BaseDbContext" rx="2.5" ry="2.5" style="stroke:#181818;stroke-width:0.5;" width="447" x="131" y="115"/><ellipse cx="301.25" cy="131" fill="#A9DCDF" rx="11" ry="11" style="stroke:#181818;stroke-width:1.0;"/><path d="M303.4375,132.7656 L299.2969,132.7656 L298.875,133.7969 L299.2969,133.7969 Q299.9063,133.7969 300.1719,134.0313 Q300.4375,134.2656 300.4375,134.6563 Q300.4375,135.0313 300.1719,135.2656 Q299.9063,135.5 299.2969,135.5 L297,135.5 Q296.3906,135.5 296.1328,135.2656 Q295.875,135.0313 295.875,134.6406 Q295.875,134.2656 296.1484,134.0234 Q296.4219,133.7813 297.0469,133.7969 L299.7188,127.1406 L298.6094,127.1406 Q298,127.1406 297.7344,126.9063 Q297.4688,126.6719 297.4688,126.2813 Q297.4688,125.9063 297.7344,125.6719 Q298,125.4375 298.6094,125.4375 L302.2813,125.4375 L305.6719,133.7969 Q306.2656,133.7969 306.4531,133.9375 Q306.8438,134.2031 306.8438,134.6563 Q306.8438,135.0313 306.5859,135.2656 Q306.3281,135.5 305.7188,135.5 L303.4219,135.5 Q302.8125,135.5 302.5469,135.2656 Q302.2813,135.0313 302.2813,134.6406 Q302.2813,134.2656 302.5469,134.0313 Q302.8125,133.7969 303.4219,133.7969 L303.8438,133.7969 L303.4375,132.7656 Z M302.7188,131.0625 L301.3594,127.6875 L299.9844,131.0625 L302.7188,131.0625 Z " fill="#000000"/><text fill="#000000" font-family="sans-serif" font-size="14" font-style="italic" lengthAdjust="spacing" textLength="98" x="321.75" y="136.7285">BaseDbContext</text><line style="stroke:#181818;stroke-width:0.5;" x1="132" x2="577" y1="147" y2="147"/><rect fill="none" height="6" style="stroke:#C82930;stroke-width:1.0;" width="6" x="139" y="155"/><text fill="#000000" font-family="sans-serif" font-size="14" lengthAdjust="spacing" textLength="236" x="151" y="165.5332">«readonly» _connectionString : string</text><line style="stroke:#181818;stroke-width:0.5;" x1="132" x2="577" y1="172.6094" y2="172.6094"/><ellipse cx="142" cy="183.6094" fill="#84BE84" rx="3" ry="3" style="stroke:#038048;stroke-width:1.0;"/><text fill="#000000" font-family="sans-serif" font-size="14" lengthAdjust="spacing" text-decoration="underline" textLength="168" x="151" y="191.1426">Current() : BaseDbContext</text><polygon fill="#FFFF44" points="142,196.2188,146,200.2188,142,204.2188,138,200.2188" style="stroke:#B38D22;stroke-width:1.0;"/><text fill="#000000" font-family="sans-serif" font-size="14" lengthAdjust="spacing" textLength="253" x="151" y="208.752">BaseDbContext(connectionString:string)</text><polygon fill="#FFFF44" points="142,213.8281,146,217.8281,142,221.8281,138,217.8281" style="stroke:#B38D22;stroke-width:1.0;"/><text fill="#000000" font-family="sans-serif" font-size="14" lengthAdjust="spacing" textLength="421" x="151" y="226.3613">«override» OnConfiguring(options:DbContextOptionsBuilder) : void</text></g><!--MD5=[b2f4ea8080f514364167514713c7f294]
class DbContext--><g id="elem_DbContext"><rect fill="#F1F1F1" height="48" id="DbContext" rx="2.5" ry="2.5" style="stroke:#181818;stroke-width:0.5;" width="98" x="305.5" y="7"/><ellipse cx="320.5" cy="23" fill="#ADD1B2" rx="11" ry="11" style="stroke:#181818;stroke-width:1.0;"/><path d="M323.2656,18.875 Q323.4219,18.6563 323.6094,18.5469 Q323.7969,18.4375 324.0156,18.4375 Q324.3906,18.4375 324.625,18.6953 Q324.8594,18.9531 324.8594,19.5625 L324.8594,21.0156 Q324.8594,21.625 324.625,21.8906 Q324.3906,22.1563 324.0156,22.1563 Q323.6719,22.1563 323.4688,21.9531 Q323.2656,21.7656 323.1563,21.25 Q323.1094,20.8906 322.9219,20.7031 Q322.5938,20.3281 321.9844,20.1094 Q321.375,19.8906 320.75,19.8906 Q319.9844,19.8906 319.3516,20.2188 Q318.7188,20.5469 318.2266,21.2969 Q317.7344,22.0469 317.7344,23.0781 L317.7344,24.1719 Q317.7344,25.4063 318.625,26.2266 Q319.5156,27.0469 321.1094,27.0469 Q322.0469,27.0469 322.7031,26.7969 Q323.0938,26.6406 323.5156,26.2031 Q323.7813,25.9375 323.9297,25.8594 Q324.0781,25.7813 324.2813,25.7813 Q324.6094,25.7813 324.8672,26.0391 Q325.125,26.2969 325.125,26.6406 Q325.125,26.9844 324.7813,27.3906 Q324.2813,27.9688 323.4844,28.2969 Q322.4063,28.75 321.1094,28.75 Q319.5938,28.75 318.3906,28.125 Q317.4063,27.625 316.7188,26.5547 Q316.0313,25.4844 316.0313,24.2031 L316.0313,23.0469 Q316.0313,21.7188 316.6484,20.5703 Q317.2656,19.4219 318.3594,18.8047 Q319.4531,18.1875 320.6875,18.1875 Q321.4219,18.1875 322.0703,18.3516 Q322.7188,18.5156 323.2656,18.875 Z " fill="#000000"/><text fill="#000000" font-family="sans-serif" font-size="14" lengthAdjust="spacing" textLength="66" x="334.5" y="28.7285">DbContext</text><line style="stroke:#181818;stroke-width:0.5;" x1="306.5" x2="402.5" y1="39" y2="39"/><line style="stroke:#181818;stroke-width:0.5;" x1="306.5" x2="402.5" y1="47" y2="47"/></g><!--MD5=[18b27ffe8cb597da86b64113350094db]
class PlantDbContext--><g id="elem_PlantDbContext"><rect codeLine="8" fill="#F1F1F1" height="118.4375" id="PlantDbContext" rx="2.5" ry="2.5" style="stroke:#181818;stroke-width:0.5;" width="425" x="9" y="293"/><ellipse cx="168.25" cy="309" fill="#ADD1B2" rx="11" ry="11" style="stroke:#181818;stroke-width:1.0;"/><path d="M171.0156,304.875 Q171.1719,304.6563 171.3594,304.5469 Q171.5469,304.4375 171.7656,304.4375 Q172.1406,304.4375 172.375,304.6953 Q172.6094,304.9531 172.6094,305.5625 L172.6094,307.0156 Q172.6094,307.625 172.375,307.8906 Q172.1406,308.1563 171.7656,308.1563 Q171.4219,308.1563 171.2188,307.9531 Q171.0156,307.7656 170.9063,307.25 Q170.8594,306.8906 170.6719,306.7031 Q170.3438,306.3281 169.7344,306.1094 Q169.125,305.8906 168.5,305.8906 Q167.7344,305.8906 167.1016,306.2188 Q166.4688,306.5469 165.9766,307.2969 Q165.4844,308.0469 165.4844,309.0781 L165.4844,310.1719 Q165.4844,311.4063 166.375,312.2266 Q167.2656,313.0469 168.8594,313.0469 Q169.7969,313.0469 170.4531,312.7969 Q170.8438,312.6406 171.2656,312.2031 Q171.5313,311.9375 171.6797,311.8594 Q171.8281,311.7813 172.0313,311.7813 Q172.3594,311.7813 172.6172,312.0391 Q172.875,312.2969 172.875,312.6406 Q172.875,312.9844 172.5313,313.3906 Q172.0313,313.9688 171.2344,314.2969 Q170.1563,314.75 168.8594,314.75 Q167.3438,314.75 166.1406,314.125 Q165.1563,313.625 164.4688,312.5547 Q163.7813,311.4844 163.7813,310.2031 L163.7813,309.0469 Q163.7813,307.7188 164.3984,306.5703 Q165.0156,305.4219 166.1094,304.8047 Q167.2031,304.1875 168.4375,304.1875 Q169.1719,304.1875 169.8203,304.3516 Q170.4688,304.5156 171.0156,304.875 Z " fill="#000000"/><text fill="#000000" font-family="sans-serif" font-size="14" lengthAdjust="spacing" textLength="98" x="188.75" y="314.7285">PlantDbContext</text><line style="stroke:#181818;stroke-width:0.5;" x1="10" x2="433" y1="325" y2="325"/><rect fill="none" height="6" style="stroke:#C82930;stroke-width:1.0;" width="6" x="17" y="333"/><text fill="#000000" font-family="sans-serif" font-size="14" lengthAdjust="spacing" text-decoration="underline" textLength="171" x="29" y="343.5332">_current : PlantDbContext?</text><line style="stroke:#181818;stroke-width:0.5;" x1="10" x2="433" y1="350.6094" y2="350.6094"/><polygon fill="#FFFF44" points="20,356.6094,24,360.6094,20,364.6094,16,360.6094" style="stroke:#B38D22;stroke-width:1.0;"/><text fill="#000000" font-family="sans-serif" font-size="14" lengthAdjust="spacing" text-decoration="underline" textLength="213" x="29" y="369.1426">«new» Current() : PlantDbContext</text><ellipse cx="20" cy="379.2188" fill="#84BE84" rx="3" ry="3" style="stroke:#038048;stroke-width:1.0;"/><text fill="#000000" font-family="sans-serif" font-size="14" lengthAdjust="spacing" textLength="253" x="29" y="386.752">PlantDbContext(connectionString:string)</text><polygon fill="#FFFF44" points="20,391.8281,24,395.8281,20,399.8281,16,395.8281" style="stroke:#B38D22;stroke-width:1.0;"/><text fill="#000000" font-family="sans-serif" font-size="14" lengthAdjust="spacing" textLength="399" x="29" y="404.3613">«override» OnModelCreating(modelBuilder:ModelBuilder) : void</text></g><!--MD5=[b8f2540aa4dd6bb1837454fa23f7d336]
class DbSet--><g id="elem_DbSet"><rect codeLine="14" fill="#F1F1F1" height="48" id="DbSet" rx="2.5" ry="2.5" style="stroke:#181818;stroke-width:0.5;" width="82" x="180.5" y="471"/><ellipse cx="195.5" cy="487" fill="#ADD1B2" rx="11" ry="11" style="stroke:#181818;stroke-width:1.0;"/><path d="M198.2656,482.875 Q198.4219,482.6563 198.6094,482.5469 Q198.7969,482.4375 199.0156,482.4375 Q199.3906,482.4375 199.625,482.6953 Q199.8594,482.9531 199.8594,483.5625 L199.8594,485.0156 Q199.8594,485.625 199.625,485.8906 Q199.3906,486.1563 199.0156,486.1563 Q198.6719,486.1563 198.4688,485.9531 Q198.2656,485.7656 198.1563,485.25 Q198.1094,484.8906 197.9219,484.7031 Q197.5938,484.3281 196.9844,484.1094 Q196.375,483.8906 195.75,483.8906 Q194.9844,483.8906 194.3516,484.2188 Q193.7188,484.5469 193.2266,485.2969 Q192.7344,486.0469 192.7344,487.0781 L192.7344,488.1719 Q192.7344,489.4063 193.625,490.2266 Q194.5156,491.0469 196.1094,491.0469 Q197.0469,491.0469 197.7031,490.7969 Q198.0938,490.6406 198.5156,490.2031 Q198.7813,489.9375 198.9297,489.8594 Q199.0781,489.7813 199.2813,489.7813 Q199.6094,489.7813 199.8672,490.0391 Q200.125,490.2969 200.125,490.6406 Q200.125,490.9844 199.7813,491.3906 Q199.2813,491.9688 198.4844,492.2969 Q197.4063,492.75 196.1094,492.75 Q194.5938,492.75 193.3906,492.125 Q192.4063,491.625 191.7188,490.5547 Q191.0313,489.4844 191.0313,488.2031 L191.0313,487.0469 Q191.0313,485.7188 191.6484,484.5703 Q192.2656,483.4219 193.3594,482.8047 Q194.4531,482.1875 195.6875,482.1875 Q196.4219,482.1875 197.0703,482.3516 Q197.7188,482.5156 198.2656,482.875 Z " fill="#000000"/><text fill="#000000" font-family="sans-serif" font-size="14" lengthAdjust="spacing" textLength="39" x="209.5" y="492.7285">DbSet</text><rect fill="#FFFFFF" height="17.0938" style="stroke:#000000;stroke-width:1.0;stroke-dasharray:2.0,2.0;" width="9" x="256.5" y="468"/><text fill="#000000" font-family="sans-serif" font-size="12" font-style="italic" lengthAdjust="spacing" textLength="7" x="257.5" y="481.457">T</text><line style="stroke:#181818;stroke-width:0.5;" x1="181.5" x2="261.5" y1="503" y2="503"/><line style="stroke:#181818;stroke-width:0.5;" x1="181.5" x2="261.5" y1="511" y2="511"/></g><!--MD5=[f934449c955f757ac3ae6b309ab3717b]
class UserDbContext--><g id="elem_UserDbContext"><rect codeLine="25" fill="#F1F1F1" height="118.4375" id="UserDbContext" rx="2.5" ry="2.5" style="stroke:#181818;stroke-width:0.5;" width="425" x="142" y="579"/><ellipse cx="302.75" cy="595" fill="#ADD1B2" rx="11" ry="11" style="stroke:#181818;stroke-width:1.0;"/><path d="M305.5156,590.875 Q305.6719,590.6563 305.8594,590.5469 Q306.0469,590.4375 306.2656,590.4375 Q306.6406,590.4375 306.875,590.6953 Q307.1094,590.9531 307.1094,591.5625 L307.1094,593.0156 Q307.1094,593.625 306.875,593.8906 Q306.6406,594.1563 306.2656,594.1563 Q305.9219,594.1563 305.7188,593.9531 Q305.5156,593.7656 305.4063,593.25 Q305.3594,592.8906 305.1719,592.7031 Q304.8438,592.3281 304.2344,592.1094 Q303.625,591.8906 303,591.8906 Q302.2344,591.8906 301.6016,592.2188 Q300.9688,592.5469 300.4766,593.2969 Q299.9844,594.0469 299.9844,595.0781 L299.9844,596.1719 Q299.9844,597.4063 300.875,598.2266 Q301.7656,599.0469 303.3594,599.0469 Q304.2969,599.0469 304.9531,598.7969 Q305.3438,598.6406 305.7656,598.2031 Q306.0313,597.9375 306.1797,597.8594 Q306.3281,597.7813 306.5313,597.7813 Q306.8594,597.7813 307.1172,598.0391 Q307.375,598.2969 307.375,598.6406 Q307.375,598.9844 307.0313,599.3906 Q306.5313,599.9688 305.7344,600.2969 Q304.6563,600.75 303.3594,600.75 Q301.8438,600.75 300.6406,600.125 Q299.6563,599.625 298.9688,598.5547 Q298.2813,597.4844 298.2813,596.2031 L298.2813,595.0469 Q298.2813,593.7188 298.8984,592.5703 Q299.5156,591.4219 300.6094,590.8047 Q301.7031,590.1875 302.9375,590.1875 Q303.6719,590.1875 304.3203,590.3516 Q304.9688,590.5156 305.5156,590.875 Z " fill="#000000"/><text fill="#000000" font-family="sans-serif" font-size="14" lengthAdjust="spacing" textLength="95" x="323.25" y="600.7285">UserDbContext</text><line style="stroke:#181818;stroke-width:0.5;" x1="143" x2="566" y1="611" y2="611"/><rect fill="none" height="6" style="stroke:#C82930;stroke-width:1.0;" width="6" x="150" y="619"/><text fill="#000000" font-family="sans-serif" font-size="14" lengthAdjust="spacing" text-decoration="underline" textLength="168" x="162" y="629.5332">_current : UserDbContext?</text><line style="stroke:#181818;stroke-width:0.5;" x1="143" x2="566" y1="636.6094" y2="636.6094"/><polygon fill="#FFFF44" points="153,642.6094,157,646.6094,153,650.6094,149,646.6094" style="stroke:#B38D22;stroke-width:1.0;"/><text fill="#000000" font-family="sans-serif" font-size="14" lengthAdjust="spacing" text-decoration="underline" textLength="210" x="162" y="655.1426">«new» Current() : UserDbContext</text><ellipse cx="153" cy="665.2188" fill="#84BE84" rx="3" ry="3" style="stroke:#038048;stroke-width:1.0;"/><text fill="#000000" font-family="sans-serif" font-size="14" lengthAdjust="spacing" textLength="250" x="162" y="672.752">UserDbContext(connectionString:string)</text><polygon fill="#FFFF44" points="153,677.8281,157,681.8281,153,685.8281,149,681.8281" style="stroke:#B38D22;stroke-width:1.0;"/><text fill="#000000" font-family="sans-serif" font-size="14" lengthAdjust="spacing" textLength="399" x="162" y="690.3613">«override» OnModelCreating(modelBuilder:ModelBuilder) : void</text></g><!--MD5=[14ad7779ec255cd20edb411ff4a8640d]
reverse link DbContext to BaseDbContext--><g id="link_DbContext_BaseDbContext"><path codeLine="7" d="M354.5,75.33 C354.5,87.86 354.5,101.73 354.5,114.99 " fill="none" id="DbContext-backto-BaseDbContext" style="stroke:#181818;stroke-width:1.0;"/><polygon fill="none" points="347.5,75.28,354.5,55.28,361.5,75.28,347.5,75.28" style="stroke:#181818;stroke-width:1.0;"/></g><!--MD5=[1d78877ade29ff1dab2627bc7aa76642]
reverse link BaseDbContext to PlantDbContext--><g id="link_BaseDbContext_PlantDbContext"><path codeLine="16" d="M298.37,249.28 C287.34,263.87 275.92,278.98 265.37,292.94 " fill="none" id="BaseDbContext-backto-PlantDbContext" style="stroke:#181818;stroke-width:1.0;"/><polygon fill="none" points="292.94,244.85,310.58,233.12,304.11,253.29,292.94,244.85" style="stroke:#181818;stroke-width:1.0;"/></g><!--MD5=[2c63b5f2b6b2e87e57f2ef4457dd7255]
link PlantDbContext to DbSet--><g id="link_PlantDbContext_DbSet"><path codeLine="17" d="M130.113,423.1051 C130.113,423.1051 143.08,469.31 168.39,482.42 " fill="none" id="PlantDbContext-DbSet" style="stroke:#181818;stroke-width:1.0;"/><polygon fill="#181818" points="180.45,487.59,173.7482,480.373,175.8529,485.6237,170.6021,487.7284,180.45,487.59" style="stroke:#181818;stroke-width:1.0;"/><line style="stroke:#181818;stroke-width:1.0;" x1="175.8529" x2="168.5" y1="485.6237" y2="482.465"/><polygon fill="none" points="131.26,411.16,126.7048,416.7502,130.113,423.1051,134.6682,417.5149,131.26,411.16" style="stroke:#181818;stroke-width:1.0;"/><text fill="#000000" font-family="sans-serif" font-size="13" lengthAdjust="spacing" textLength="130" x="42.662" y="501.1414">Categories&lt;Category&gt;</text></g><!--MD5=[2c63b5f2b6b2e87e57f2ef4457dd7255]
link PlantDbContext to DbSet--><g id="link_PlantDbContext_DbSet"><path codeLine="18" d="M156.3456,423.133 C156.3456,423.133 161.43,457.59 171.33,470.42 " fill="none" id="PlantDbContext-DbSet-1" style="stroke:#181818;stroke-width:1.0;"/><polygon fill="#181818" points="180.31,479.82,176.9898,470.5477,176.8579,476.203,171.2026,476.071,180.31,479.82" style="stroke:#181818;stroke-width:1.0;"/><line style="stroke:#181818;stroke-width:1.0;" x1="176.8579" x2="171.33" y1="476.203" y2="470.42"/><polygon fill="none" points="157.15,411.16,152.7568,416.8784,156.3456,423.133,160.7388,417.4146,157.15,411.16" style="stroke:#181818;stroke-width:1.0;"/><text fill="#000000" font-family="sans-serif" font-size="13" lengthAdjust="spacing" textLength="83" x="89.4286" y="475.1225">Shops&lt;Shop&gt;</text></g><!--MD5=[2c63b5f2b6b2e87e57f2ef4457dd7255]
link PlantDbContext to DbSet--><g id="link_PlantDbContext_DbSet"><path codeLine="19" d="M182.5656,423.1506 C182.5656,423.1506 184.13,448.06 187.11,458.44 " fill="none" id="PlantDbContext-DbSet-2" style="stroke:#181818;stroke-width:1.0;"/><polygon fill="#181818" points="191.68,470.77,192.3044,460.941,189.9431,466.0814,184.8026,463.72,191.68,470.77" style="stroke:#181818;stroke-width:1.0;"/><line style="stroke:#181818;stroke-width:1.0;" x1="189.9431" x2="187.165" y1="466.0814" y2="458.58"/><polygon fill="none" points="183.04,411.16,178.8059,416.9972,182.5656,423.1506,186.7997,417.3134,183.04,411.16" style="stroke:#181818;stroke-width:1.0;"/><text fill="#000000" font-family="sans-serif" font-size="13" lengthAdjust="spacing" textLength="83" x="194.673" y="460.0512">Plants&lt;Plant&gt;</text></g><!--MD5=[2c63b5f2b6b2e87e57f2ef4457dd7255]
link PlantDbContext to DbSet--><g id="link_PlantDbContext_DbSet"><path codeLine="20" d="M208.7718,423.159 C208.7718,423.159 209.26,447.53 210.19,457.75 " fill="none" id="PlantDbContext-DbSet-3" style="stroke:#181818;stroke-width:1.0;"/><polygon fill="#181818" points="211.75,470.77,214.6541,461.359,211.1569,465.8053,206.7106,462.3081,211.75,470.77" style="stroke:#181818;stroke-width:1.0;"/><line style="stroke:#181818;stroke-width:1.0;" x1="211.1569" x2="210.21" y1="465.8053" y2="457.86"/><polygon fill="none" points="208.93,411.16,204.8512,417.1067,208.7718,423.159,212.8505,417.2122,208.93,411.16" style="stroke:#181818;stroke-width:1.0;"/><text fill="#000000" font-family="sans-serif" font-size="13" lengthAdjust="spacing" textLength="77" x="122.3859" y="460.0512">Offers&lt;Offer&gt;</text></g><!--MD5=[2c63b5f2b6b2e87e57f2ef4457dd7255]
link PlantDbContext to DbSet--><g id="link_PlantDbContext_DbSet"><path codeLine="21" d="M234.9814,423.1588 C234.9814,423.1588 234.46,447.53 233.47,457.75 " fill="none" id="PlantDbContext-DbSet-4" style="stroke:#181818;stroke-width:1.0;"/><polygon fill="#181818" points="231.82,470.77,236.9158,462.3419,232.4463,465.8094,228.9788,461.3399,231.82,470.77" style="stroke:#181818;stroke-width:1.0;"/><line style="stroke:#181818;stroke-width:1.0;" x1="232.4463" x2="233.455" y1="465.8094" y2="457.87"/><polygon fill="none" points="234.81,411.16,230.8961,417.2165,234.9814,423.1588,238.8953,417.1023,234.81,411.16" style="stroke:#181818;stroke-width:1.0;"/><text fill="#000000" font-family="sans-serif" font-size="13" lengthAdjust="spacing" textLength="190" x="270.6568" y="478.3451">PlantCategories&lt;PlantCategory&gt;</text></g><!--MD5=[2c63b5f2b6b2e87e57f2ef4457dd7255]
link PlantDbContext to DbSet--><g id="link_PlantDbContext_DbSet"><path codeLine="22" d="M261.1875,423.1501 C261.1875,423.1501 259.59,448.06 256.55,458.44 " fill="none" id="PlantDbContext-DbSet-5" style="stroke:#181818;stroke-width:1.0;"/><polygon fill="#181818" points="251.9,470.77,258.819,463.7609,253.6647,466.0918,251.3338,460.9374,251.9,470.77" style="stroke:#181818;stroke-width:1.0;"/><line style="stroke:#181818;stroke-width:1.0;" x1="253.6647" x2="256.485" y1="466.0918" y2="458.605"/><polygon fill="none" points="260.7,411.16,256.9471,417.3175,261.1875,423.1501,264.9405,416.9925,260.7,411.16" style="stroke:#181818;stroke-width:1.0;"/><text fill="#000000" font-family="sans-serif" font-size="13" lengthAdjust="spacing" textLength="137" x="270.7528" y="462.1548">UserPlants&lt;UserPlant&gt;</text></g><!--MD5=[2c63b5f2b6b2e87e57f2ef4457dd7255]
link PlantDbContext to DbSet--><g id="link_PlantDbContext_DbSet"><path codeLine="23" d="M287.4075,423.1321 C287.4075,423.1321 282.17,457.86 272.02,470.71 " fill="none" id="PlantDbContext-DbSet-6" style="stroke:#181818;stroke-width:1.0;"/><polygon fill="#181818" points="262.81,480.11,271.9662,476.4818,266.3096,476.5389,266.2525,470.8824,262.81,480.11" style="stroke:#181818;stroke-width:1.0;"/><line style="stroke:#181818;stroke-width:1.0;" x1="266.3096" x2="271.91" y1="476.5389" y2="470.825"/><polygon fill="none" points="286.59,411.16,283.008,417.4186,287.4075,423.1321,290.9894,416.8736,286.59,411.16" style="stroke:#181818;stroke-width:1.0;"/><text fill="#000000" font-family="sans-serif" font-size="13" lengthAdjust="spacing" textLength="151" x="270.6582" y="493.154">OfferRatings&lt;OfferRating&gt;</text></g><!--MD5=[2c63b5f2b6b2e87e57f2ef4457dd7255]
link PlantDbContext to DbSet--><g id="link_PlantDbContext_DbSet"><path codeLine="24" d="M313.627,423.1051 C313.627,423.1051 300.48,469.45 274.82,482.54 " fill="none" id="PlantDbContext-DbSet-7" style="stroke:#181818;stroke-width:1.0;"/><polygon fill="#181818" points="262.59,487.69,272.4372,487.8725,267.1959,485.7443,269.3241,480.503,262.59,487.69" style="stroke:#181818;stroke-width:1.0;"/><line style="stroke:#181818;stroke-width:1.0;" x1="267.1959" x2="274.57" y1="485.7443" y2="482.64"/><polygon fill="none" points="312.48,411.16,309.0718,417.5149,313.627,423.1051,317.0352,416.7502,312.48,411.16" style="stroke:#181818;stroke-width:1.0;"/><text fill="#000000" font-family="sans-serif" font-size="13" lengthAdjust="spacing" textLength="151" x="270.4234" y="501.2433">OfferFollows&lt;OfferFollow&gt;</text></g><!--MD5=[a22607a4b53cb99a9e557c8f1a074de1]
reverse link BaseDbContext to UserDbContext--><g id="link_BaseDbContext_UserDbContext"><path codeLine="31" d="M427.87,249.26 C437.54,262.86 446,277.65 451.5,293 C486.82,391.58 433.42,509.67 392.93,578.71 " fill="none" id="BaseDbContext-backto-UserDbContext" style="stroke:#181818;stroke-width:1.0;"/><polygon fill="none" points="422.23,253.41,415.59,233.29,433.33,244.87,422.23,253.41" style="stroke:#181818;stroke-width:1.0;"/></g><!--MD5=[4eb2a14fbef3ecb89da0f953284b9421]
link DbSet to UserDbContext--><g id="link_DbSet_UserDbContext"><path codeLine="32" d="M252.66,529.04 C264.08,541.14 291.549,570.2578 291.549,570.2578 " fill="none" id="DbSet-UserDbContext" style="stroke:#181818;stroke-width:1.0;"/><polygon fill="none" points="299.78,578.99,298.5753,571.8802,291.549,570.2578,292.7538,577.3676,299.78,578.99" style="stroke:#181818;stroke-width:1.0;"/><polygon fill="#181818" points="243.46,519.28,246.7225,528.5728,246.8896,522.9184,252.544,523.0855,243.46,519.28" style="stroke:#181818;stroke-width:1.0;"/><line style="stroke:#181818;stroke-width:1.0;" x1="246.8896" x2="252.38" y1="522.9184" y2="528.74"/><text fill="#000000" font-family="sans-serif" font-size="13" lengthAdjust="spacing" textLength="77" x="162.4284" y="540.6862">Users&lt;User&gt;</text></g><!--MD5=[436fb14b764e1d964fb71bec695d6a90]
@startuml
abstract class BaseDbContext {
    + {static} Current() : BaseDbContext
    - <<readonly>> _connectionString : string
    # BaseDbContext(connectionString:string)
    # <<override>> OnConfiguring(options:DbContextOptionsBuilder) : void
}
DbContext <|- - BaseDbContext
class PlantDbContext {
    - {static} _current : PlantDbContext?
    # <<new>> {static} Current() : PlantDbContext
    + PlantDbContext(connectionString:string)
    # <<override>> OnModelCreating(modelBuilder:ModelBuilder) : void
}
class "DbSet"<T> {
}
BaseDbContext <|- - PlantDbContext
PlantDbContext o-d-> "Categories<Category>" "DbSet"
PlantDbContext o-d-> "Shops<Shop>" "DbSet"
PlantDbContext o-d-> "Plants<Plant>" "DbSet"
PlantDbContext o-d-> "Offers<Offer>" "DbSet"
PlantDbContext o-d-> "PlantCategories<PlantCategory>" "DbSet"
PlantDbContext o-d-> "UserPlants<UserPlant>" "DbSet"
PlantDbContext o-d-> "OfferRatings<OfferRating>" "DbSet"
PlantDbContext o-d-> "OfferFollows<OfferFollow>" "DbSet"
class UserDbContext {
    - {static} _current : UserDbContext?
    # <<new>> {static} Current() : UserDbContext
    + UserDbContext(connectionString:string)
    # <<override>> OnModelCreating(modelBuilder:ModelBuilder) : void
}
BaseDbContext <|- - UserDbContext
UserDbContext o-u-> "Users<User>" "DbSet"
@enduml

PlantUML version 1.2022.6(Tue Jun 21 19:34:49 CEST 2022)
(GPL source distribution)
Java Runtime: Java(TM) SE Runtime Environment
JVM: Java HotSpot(TM) 64-Bit Server VM
Default Encoding: Cp1250
Language: pl
Country: PL
--></g></svg>