<?xml version="1.0" encoding="UTF-8" standalone="no"?><svg xmlns="http://www.w3.org/2000/svg" xmlns:xlink="http://www.w3.org/1999/xlink" contentStyleType="text/css" height="278px" preserveAspectRatio="none" style="width:508px;height:278px;background:#FFFFFF;" version="1.1" viewBox="0 0 508 278" width="508px" zoomAndPan="magnify"><defs/><g><!--MD5=[ee7c22c2fa5a48bdc607c3bade61e31f]
class PubSubEvent--><g id="elem_PubSubEvent"><rect codeLine="1" fill="#F1F1F1" height="48" id="PubSubEvent" rx="2.5" ry="2.5" style="stroke:#181818;stroke-width:0.5;" width="129" x="182.5" y="115"/><ellipse cx="197.5" cy="131" fill="#ADD1B2" rx="11" ry="11" style="stroke:#181818;stroke-width:1.0;"/><path d="M200.2656,126.875 Q200.4219,126.6563 200.6094,126.5469 Q200.7969,126.4375 201.0156,126.4375 Q201.3906,126.4375 201.625,126.6953 Q201.8594,126.9531 201.8594,127.5625 L201.8594,129.0156 Q201.8594,129.625 201.625,129.8906 Q201.3906,130.1563 201.0156,130.1563 Q200.6719,130.1563 200.4688,129.9531 Q200.2656,129.7656 200.1563,129.25 Q200.1094,128.8906 199.9219,128.7031 Q199.5938,128.3281 198.9844,128.1094 Q198.375,127.8906 197.75,127.8906 Q196.9844,127.8906 196.3516,128.2188 Q195.7188,128.5469 195.2266,129.2969 Q194.7344,130.0469 194.7344,131.0781 L194.7344,132.1719 Q194.7344,133.4063 195.625,134.2266 Q196.5156,135.0469 198.1094,135.0469 Q199.0469,135.0469 199.7031,134.7969 Q200.0938,134.6406 200.5156,134.2031 Q200.7813,133.9375 200.9297,133.8594 Q201.0781,133.7813 201.2813,133.7813 Q201.6094,133.7813 201.8672,134.0391 Q202.125,134.2969 202.125,134.6406 Q202.125,134.9844 201.7813,135.3906 Q201.2813,135.9688 200.4844,136.2969 Q199.4063,136.75 198.1094,136.75 Q196.5938,136.75 195.3906,136.125 Q194.4063,135.625 193.7188,134.5547 Q193.0313,133.4844 193.0313,132.2031 L193.0313,131.0469 Q193.0313,129.7188 193.6484,128.5703 Q194.2656,127.4219 195.3594,126.8047 Q196.4531,126.1875 197.6875,126.1875 Q198.4219,126.1875 199.0703,126.3516 Q199.7188,126.5156 200.2656,126.875 Z " fill="#000000"/><text fill="#000000" font-family="sans-serif" font-size="14" lengthAdjust="spacing" textLength="86" x="211.5" y="136.7285">PubSubEvent</text><rect fill="#FFFFFF" height="17.0938" style="stroke:#000000;stroke-width:1.0;stroke-dasharray:2.0,2.0;" width="9" x="305.5" y="112"/><text fill="#000000" font-family="sans-serif" font-size="12" font-style="italic" lengthAdjust="spacing" textLength="7" x="306.5" y="125.457">T</text><line style="stroke:#181818;stroke-width:0.5;" x1="183.5" x2="310.5" y1="147" y2="147"/><line style="stroke:#181818;stroke-width:0.5;" x1="183.5" x2="310.5" y1="155" y2="155"/></g><!--MD5=[75600ca77e4e7323c60d6f3fcad02b5f]
class OfferFollowEvent--><g id="elem_OfferFollowEvent"><rect codeLine="3" fill="#F1F1F1" height="48" id="OfferFollowEvent" rx="2.5" ry="2.5" style="stroke:#181818;stroke-width:0.5;" width="140" x="7" y="115"/><ellipse cx="22" cy="131" fill="#ADD1B2" rx="11" ry="11" style="stroke:#181818;stroke-width:1.0;"/><path d="M24.7656,126.875 Q24.9219,126.6563 25.1094,126.5469 Q25.2969,126.4375 25.5156,126.4375 Q25.8906,126.4375 26.125,126.6953 Q26.3594,126.9531 26.3594,127.5625 L26.3594,129.0156 Q26.3594,129.625 26.125,129.8906 Q25.8906,130.1563 25.5156,130.1563 Q25.1719,130.1563 24.9688,129.9531 Q24.7656,129.7656 24.6563,129.25 Q24.6094,128.8906 24.4219,128.7031 Q24.0938,128.3281 23.4844,128.1094 Q22.875,127.8906 22.25,127.8906 Q21.4844,127.8906 20.8516,128.2188 Q20.2188,128.5469 19.7266,129.2969 Q19.2344,130.0469 19.2344,131.0781 L19.2344,132.1719 Q19.2344,133.4063 20.125,134.2266 Q21.0156,135.0469 22.6094,135.0469 Q23.5469,135.0469 24.2031,134.7969 Q24.5938,134.6406 25.0156,134.2031 Q25.2813,133.9375 25.4297,133.8594 Q25.5781,133.7813 25.7813,133.7813 Q26.1094,133.7813 26.3672,134.0391 Q26.625,134.2969 26.625,134.6406 Q26.625,134.9844 26.2813,135.3906 Q25.7813,135.9688 24.9844,136.2969 Q23.9063,136.75 22.6094,136.75 Q21.0938,136.75 19.8906,136.125 Q18.9063,135.625 18.2188,134.5547 Q17.5313,133.4844 17.5313,132.2031 L17.5313,131.0469 Q17.5313,129.7188 18.1484,128.5703 Q18.7656,127.4219 19.8594,126.8047 Q20.9531,126.1875 22.1875,126.1875 Q22.9219,126.1875 23.5703,126.3516 Q24.2188,126.5156 24.7656,126.875 Z " fill="#000000"/><text fill="#000000" font-family="sans-serif" font-size="14" lengthAdjust="spacing" textLength="108" x="36" y="136.7285">OfferFollowEvent</text><line style="stroke:#181818;stroke-width:0.5;" x1="8" x2="146" y1="147" y2="147"/><line style="stroke:#181818;stroke-width:0.5;" x1="8" x2="146" y1="155" y2="155"/></g><!--MD5=[95cbc8d2ebc52859bcf721e62e42d2de]
class OfferUnfollowEvent--><g id="elem_OfferUnfollowEvent"><rect codeLine="6" fill="#F1F1F1" height="48" id="OfferUnfollowEvent" rx="2.5" ry="2.5" style="stroke:#181818;stroke-width:0.5;" width="152" x="263" y="7"/><ellipse cx="278" cy="23" fill="#ADD1B2" rx="11" ry="11" style="stroke:#181818;stroke-width:1.0;"/><path d="M280.7656,18.875 Q280.9219,18.6563 281.1094,18.5469 Q281.2969,18.4375 281.5156,18.4375 Q281.8906,18.4375 282.125,18.6953 Q282.3594,18.9531 282.3594,19.5625 L282.3594,21.0156 Q282.3594,21.625 282.125,21.8906 Q281.8906,22.1563 281.5156,22.1563 Q281.1719,22.1563 280.9688,21.9531 Q280.7656,21.7656 280.6563,21.25 Q280.6094,20.8906 280.4219,20.7031 Q280.0938,20.3281 279.4844,20.1094 Q278.875,19.8906 278.25,19.8906 Q277.4844,19.8906 276.8516,20.2188 Q276.2188,20.5469 275.7266,21.2969 Q275.2344,22.0469 275.2344,23.0781 L275.2344,24.1719 Q275.2344,25.4063 276.125,26.2266 Q277.0156,27.0469 278.6094,27.0469 Q279.5469,27.0469 280.2031,26.7969 Q280.5938,26.6406 281.0156,26.2031 Q281.2813,25.9375 281.4297,25.8594 Q281.5781,25.7813 281.7813,25.7813 Q282.1094,25.7813 282.3672,26.0391 Q282.625,26.2969 282.625,26.6406 Q282.625,26.9844 282.2813,27.3906 Q281.7813,27.9688 280.9844,28.2969 Q279.9063,28.75 278.6094,28.75 Q277.0938,28.75 275.8906,28.125 Q274.9063,27.625 274.2188,26.5547 Q273.5313,25.4844 273.5313,24.2031 L273.5313,23.0469 Q273.5313,21.7188 274.1484,20.5703 Q274.7656,19.4219 275.8594,18.8047 Q276.9531,18.1875 278.1875,18.1875 Q278.9219,18.1875 279.5703,18.3516 Q280.2188,18.5156 280.7656,18.875 Z " fill="#000000"/><text fill="#000000" font-family="sans-serif" font-size="14" lengthAdjust="spacing" textLength="120" x="292" y="28.7285">OfferUnfollowEvent</text><line style="stroke:#181818;stroke-width:0.5;" x1="264" x2="414" y1="39" y2="39"/><line style="stroke:#181818;stroke-width:0.5;" x1="264" x2="414" y1="47" y2="47"/></g><!--MD5=[0cc8defe53b59bf651a22d3fadd96d02]
class UserLoggedEvent--><g id="elem_UserLoggedEvent"><rect codeLine="9" fill="#F1F1F1" height="48" id="UserLoggedEvent" rx="2.5" ry="2.5" style="stroke:#181818;stroke-width:0.5;" width="145" x="82.5" y="7"/><ellipse cx="97.5" cy="23" fill="#ADD1B2" rx="11" ry="11" style="stroke:#181818;stroke-width:1.0;"/><path d="M100.2656,18.875 Q100.4219,18.6563 100.6094,18.5469 Q100.7969,18.4375 101.0156,18.4375 Q101.3906,18.4375 101.625,18.6953 Q101.8594,18.9531 101.8594,19.5625 L101.8594,21.0156 Q101.8594,21.625 101.625,21.8906 Q101.3906,22.1563 101.0156,22.1563 Q100.6719,22.1563 100.4688,21.9531 Q100.2656,21.7656 100.1563,21.25 Q100.1094,20.8906 99.9219,20.7031 Q99.5938,20.3281 98.9844,20.1094 Q98.375,19.8906 97.75,19.8906 Q96.9844,19.8906 96.3516,20.2188 Q95.7188,20.5469 95.2266,21.2969 Q94.7344,22.0469 94.7344,23.0781 L94.7344,24.1719 Q94.7344,25.4063 95.625,26.2266 Q96.5156,27.0469 98.1094,27.0469 Q99.0469,27.0469 99.7031,26.7969 Q100.0938,26.6406 100.5156,26.2031 Q100.7813,25.9375 100.9297,25.8594 Q101.0781,25.7813 101.2813,25.7813 Q101.6094,25.7813 101.8672,26.0391 Q102.125,26.2969 102.125,26.6406 Q102.125,26.9844 101.7813,27.3906 Q101.2813,27.9688 100.4844,28.2969 Q99.4063,28.75 98.1094,28.75 Q96.5938,28.75 95.3906,28.125 Q94.4063,27.625 93.7188,26.5547 Q93.0313,25.4844 93.0313,24.2031 L93.0313,23.0469 Q93.0313,21.7188 93.6484,20.5703 Q94.2656,19.4219 95.3594,18.8047 Q96.4531,18.1875 97.6875,18.1875 Q98.4219,18.1875 99.0703,18.3516 Q99.7188,18.5156 100.2656,18.875 Z " fill="#000000"/><text fill="#000000" font-family="sans-serif" font-size="14" lengthAdjust="spacing" textLength="113" x="111.5" y="28.7285">UserLoggedEvent</text><line style="stroke:#181818;stroke-width:0.5;" x1="83.5" x2="226.5" y1="39" y2="39"/><line style="stroke:#181818;stroke-width:0.5;" x1="83.5" x2="226.5" y1="47" y2="47"/></g><!--MD5=[81f5628c76019f00e58d87f9e14dd534]
class UserPlantAddEvent--><g id="elem_UserPlantAddEvent"><rect codeLine="12" fill="#F1F1F1" height="48" id="UserPlantAddEvent" rx="2.5" ry="2.5" style="stroke:#181818;stroke-width:0.5;" width="154" x="72" y="223"/><ellipse cx="87" cy="239" fill="#ADD1B2" rx="11" ry="11" style="stroke:#181818;stroke-width:1.0;"/><path d="M89.7656,234.875 Q89.9219,234.6563 90.1094,234.5469 Q90.2969,234.4375 90.5156,234.4375 Q90.8906,234.4375 91.125,234.6953 Q91.3594,234.9531 91.3594,235.5625 L91.3594,237.0156 Q91.3594,237.625 91.125,237.8906 Q90.8906,238.1563 90.5156,238.1563 Q90.1719,238.1563 89.9688,237.9531 Q89.7656,237.7656 89.6563,237.25 Q89.6094,236.8906 89.4219,236.7031 Q89.0938,236.3281 88.4844,236.1094 Q87.875,235.8906 87.25,235.8906 Q86.4844,235.8906 85.8516,236.2188 Q85.2188,236.5469 84.7266,237.2969 Q84.2344,238.0469 84.2344,239.0781 L84.2344,240.1719 Q84.2344,241.4063 85.125,242.2266 Q86.0156,243.0469 87.6094,243.0469 Q88.5469,243.0469 89.2031,242.7969 Q89.5938,242.6406 90.0156,242.2031 Q90.2813,241.9375 90.4297,241.8594 Q90.5781,241.7813 90.7813,241.7813 Q91.1094,241.7813 91.3672,242.0391 Q91.625,242.2969 91.625,242.6406 Q91.625,242.9844 91.2813,243.3906 Q90.7813,243.9688 89.9844,244.2969 Q88.9063,244.75 87.6094,244.75 Q86.0938,244.75 84.8906,244.125 Q83.9063,243.625 83.2188,242.5547 Q82.5313,241.4844 82.5313,240.2031 L82.5313,239.0469 Q82.5313,237.7188 83.1484,236.5703 Q83.7656,235.4219 84.8594,234.8047 Q85.9531,234.1875 87.1875,234.1875 Q87.9219,234.1875 88.5703,234.3516 Q89.2188,234.5156 89.7656,234.875 Z " fill="#000000"/><text fill="#000000" font-family="sans-serif" font-size="14" lengthAdjust="spacing" textLength="122" x="101" y="244.7285">UserPlantAddEvent</text><line style="stroke:#181818;stroke-width:0.5;" x1="73" x2="225" y1="255" y2="255"/><line style="stroke:#181818;stroke-width:0.5;" x1="73" x2="225" y1="263" y2="263"/></g><!--MD5=[7022cbc04116e65f7089565e86f77772]
class UserPlantDeleteEvent--><g id="elem_UserPlantDeleteEvent"><rect codeLine="15" fill="#F1F1F1" height="48" id="UserPlantDeleteEvent" rx="2.5" ry="2.5" style="stroke:#181818;stroke-width:0.5;" width="170" x="261" y="223"/><ellipse cx="276" cy="239" fill="#ADD1B2" rx="11" ry="11" style="stroke:#181818;stroke-width:1.0;"/><path d="M278.7656,234.875 Q278.9219,234.6563 279.1094,234.5469 Q279.2969,234.4375 279.5156,234.4375 Q279.8906,234.4375 280.125,234.6953 Q280.3594,234.9531 280.3594,235.5625 L280.3594,237.0156 Q280.3594,237.625 280.125,237.8906 Q279.8906,238.1563 279.5156,238.1563 Q279.1719,238.1563 278.9688,237.9531 Q278.7656,237.7656 278.6563,237.25 Q278.6094,236.8906 278.4219,236.7031 Q278.0938,236.3281 277.4844,236.1094 Q276.875,235.8906 276.25,235.8906 Q275.4844,235.8906 274.8516,236.2188 Q274.2188,236.5469 273.7266,237.2969 Q273.2344,238.0469 273.2344,239.0781 L273.2344,240.1719 Q273.2344,241.4063 274.125,242.2266 Q275.0156,243.0469 276.6094,243.0469 Q277.5469,243.0469 278.2031,242.7969 Q278.5938,242.6406 279.0156,242.2031 Q279.2813,241.9375 279.4297,241.8594 Q279.5781,241.7813 279.7813,241.7813 Q280.1094,241.7813 280.3672,242.0391 Q280.625,242.2969 280.625,242.6406 Q280.625,242.9844 280.2813,243.3906 Q279.7813,243.9688 278.9844,244.2969 Q277.9063,244.75 276.6094,244.75 Q275.0938,244.75 273.8906,244.125 Q272.9063,243.625 272.2188,242.5547 Q271.5313,241.4844 271.5313,240.2031 L271.5313,239.0469 Q271.5313,237.7188 272.1484,236.5703 Q272.7656,235.4219 273.8594,234.8047 Q274.9531,234.1875 276.1875,234.1875 Q276.9219,234.1875 277.5703,234.3516 Q278.2188,234.5156 278.7656,234.875 Z " fill="#000000"/><text fill="#000000" font-family="sans-serif" font-size="14" lengthAdjust="spacing" textLength="138" x="290" y="244.7285">UserPlantDeleteEvent</text><line style="stroke:#181818;stroke-width:0.5;" x1="262" x2="430" y1="255" y2="255"/><line style="stroke:#181818;stroke-width:0.5;" x1="262" x2="430" y1="263" y2="263"/></g><!--MD5=[e72eb0a9ceaa651823bd7095dace00ee]
class UserPreLoginEvent--><g id="elem_UserPreLoginEvent"><rect codeLine="18" fill="#F1F1F1" height="48" id="UserPreLoginEvent" rx="2.5" ry="2.5" style="stroke:#181818;stroke-width:0.5;" width="154" x="347" y="115"/><ellipse cx="362" cy="131" fill="#ADD1B2" rx="11" ry="11" style="stroke:#181818;stroke-width:1.0;"/><path d="M364.7656,126.875 Q364.9219,126.6563 365.1094,126.5469 Q365.2969,126.4375 365.5156,126.4375 Q365.8906,126.4375 366.125,126.6953 Q366.3594,126.9531 366.3594,127.5625 L366.3594,129.0156 Q366.3594,129.625 366.125,129.8906 Q365.8906,130.1563 365.5156,130.1563 Q365.1719,130.1563 364.9688,129.9531 Q364.7656,129.7656 364.6563,129.25 Q364.6094,128.8906 364.4219,128.7031 Q364.0938,128.3281 363.4844,128.1094 Q362.875,127.8906 362.25,127.8906 Q361.4844,127.8906 360.8516,128.2188 Q360.2188,128.5469 359.7266,129.2969 Q359.2344,130.0469 359.2344,131.0781 L359.2344,132.1719 Q359.2344,133.4063 360.125,134.2266 Q361.0156,135.0469 362.6094,135.0469 Q363.5469,135.0469 364.2031,134.7969 Q364.5938,134.6406 365.0156,134.2031 Q365.2813,133.9375 365.4297,133.8594 Q365.5781,133.7813 365.7813,133.7813 Q366.1094,133.7813 366.3672,134.0391 Q366.625,134.2969 366.625,134.6406 Q366.625,134.9844 366.2813,135.3906 Q365.7813,135.9688 364.9844,136.2969 Q363.9063,136.75 362.6094,136.75 Q361.0938,136.75 359.8906,136.125 Q358.9063,135.625 358.2188,134.5547 Q357.5313,133.4844 357.5313,132.2031 L357.5313,131.0469 Q357.5313,129.7188 358.1484,128.5703 Q358.7656,127.4219 359.8594,126.8047 Q360.9531,126.1875 362.1875,126.1875 Q362.9219,126.1875 363.5703,126.3516 Q364.2188,126.5156 364.7656,126.875 Z " fill="#000000"/><text fill="#000000" font-family="sans-serif" font-size="14" lengthAdjust="spacing" textLength="122" x="376" y="136.7285">UserPreLoginEvent</text><line style="stroke:#181818;stroke-width:0.5;" x1="348" x2="500" y1="147" y2="147"/><line style="stroke:#181818;stroke-width:0.5;" x1="348" x2="500" y1="155" y2="155"/></g><!--MD5=[5cce3b48809ca171ee0846472db61d85]
link OfferFollowEvent to PubSubEvent--><g id="link_OfferFollowEvent_PubSubEvent"><path codeLine="5" d="M147.06,139 C152.09,139 157.12,139 162.16,139 " fill="none" id="OfferFollowEvent-to-PubSubEvent" style="stroke:#181818;stroke-width:1.0;"/><polygon fill="none" points="162.19,132,182.19,139,162.19,146,162.19,132" style="stroke:#181818;stroke-width:1.0;"/><text fill="#000000" font-family="sans-serif" font-size="13" lengthAdjust="spacing" textLength="30" x="155.1641" y="134.6513">&lt;int&gt;</text></g><!--MD5=[33599def6a84c60be4027e3abb218a36]
link OfferUnfollowEvent to PubSubEvent--><g id="link_OfferUnfollowEvent_PubSubEvent"><path codeLine="8" d="M319.04,55 C307.78,67.97 293.43,84.51 280.5,99.41 " fill="none" id="OfferUnfollowEvent-to-PubSubEvent" style="stroke:#181818;stroke-width:1.0;"/><polygon fill="none" points="285.64,104.16,267.24,114.68,275.06,94.99,285.64,104.16" style="stroke:#181818;stroke-width:1.0;"/><text fill="#000000" font-family="sans-serif" font-size="13" lengthAdjust="spacing" textLength="30" x="238.5173" y="104.34">&lt;int&gt;</text></g><!--MD5=[a0e4c362da1f38836df00dac81152272]
link UserLoggedEvent to PubSubEvent--><g id="link_UserLoggedEvent_PubSubEvent"><path codeLine="11" d="M174.96,55 C186.22,67.97 200.57,84.51 213.5,99.41 " fill="none" id="UserLoggedEvent-to-PubSubEvent" style="stroke:#181818;stroke-width:1.0;"/><polygon fill="none" points="218.94,94.99,226.76,114.68,208.36,104.16,218.94,94.99" style="stroke:#181818;stroke-width:1.0;"/><text fill="#000000" font-family="sans-serif" font-size="13" lengthAdjust="spacing" textLength="46" x="170.2203" y="104.34">&lt;IUser&gt;</text></g><!--MD5=[3152cc2856d859506feac701cf09b206]
reverse link PubSubEvent to UserPlantAddEvent--><g id="link_PubSubEvent_UserPlantAddEvent"><path codeLine="14" d="M212.1,177.75 C198.24,192.74 182.73,209.51 170.56,222.68 " fill="none" id="PubSubEvent-backto-UserPlantAddEvent" style="stroke:#181818;stroke-width:1.0;"/><polygon fill="none" points="207.02,172.93,225.74,163,217.3,182.44,207.02,172.93" style="stroke:#181818;stroke-width:1.0;"/><text fill="#000000" font-family="sans-serif" font-size="13" lengthAdjust="spacing" textLength="49" x="165.586" y="184.338">&lt;IPlant&gt;</text></g><!--MD5=[83b548375ef013eb9fe1498faafec9d8]
reverse link PubSubEvent to UserPlantDeleteEvent--><g id="link_PubSubEvent_UserPlantDeleteEvent"><path codeLine="17" d="M282.26,177.75 C296.26,192.74 311.92,209.51 324.22,222.68 " fill="none" id="PubSubEvent-backto-UserPlantDeleteEvent" style="stroke:#181818;stroke-width:1.0;"/><polygon fill="none" points="277.02,182.39,268.48,163,287.25,172.84,277.02,182.39" style="stroke:#181818;stroke-width:1.0;"/><text fill="#000000" font-family="sans-serif" font-size="13" lengthAdjust="spacing" textLength="30" x="240.0595" y="184.338">&lt;int&gt;</text></g><!--MD5=[50d1e404bcb45fc80964482fcb207fe6]
reverse link PubSubEvent to UserPreLoginEvent--><g id="link_PubSubEvent_UserPreLoginEvent"><path codeLine="20" d="M331.67,139 C336.7,139 341.73,139 346.76,139 " fill="none" id="PubSubEvent-backto-UserPreLoginEvent" style="stroke:#181818;stroke-width:1.0;"/><polygon fill="none" points="331.65,146,311.65,139,331.65,132,331.65,146" style="stroke:#181818;stroke-width:1.0;"/><text fill="#000000" font-family="sans-serif" font-size="13" lengthAdjust="spacing" textLength="74" x="263.6895" y="128.9469">&lt;LoginArgs&gt;</text></g><!--MD5=[08296e7822f39d236846532f9f17c5a2]
@startuml
class "PubSubEvent"<T> {
}
class OfferFollowEvent {
}
"PubSubEvent" "<int>" <|-l- OfferFollowEvent
class OfferUnfollowEvent {
}
"PubSubEvent" "<int>" <|-u- OfferUnfollowEvent
class UserLoggedEvent {
}
"PubSubEvent" "<IUser>" <|-u- UserLoggedEvent
class UserPlantAddEvent {
}
"PubSubEvent" "<IPlant>" <|-d- UserPlantAddEvent
class UserPlantDeleteEvent {
}
"PubSubEvent" "<int>" <|-d- UserPlantDeleteEvent
class UserPreLoginEvent {
}
"PubSubEvent" "<LoginArgs>" <|-r- UserPreLoginEvent
@enduml

PlantUML version 1.2022.6(Tue Jun 21 19:34:49 CEST 2022)
(GPL source distribution)
Java Runtime: Java(TM) SE Runtime Environment
JVM: Java HotSpot(TM) 64-Bit Server VM
Default Encoding: Cp1250
Language: pl
Country: PL
--></g></svg>