<?xml version="1.0" encoding="UTF-8" standalone="no"?><svg xmlns="http://www.w3.org/2000/svg" xmlns:xlink="http://www.w3.org/1999/xlink" contentStyleType="text/css" height="733px" preserveAspectRatio="none" style="width:798px;height:733px;background:#FFFFFF;" version="1.1" viewBox="0 0 798 733" width="798px" zoomAndPan="magnify"><defs/><g><!--MD5=[48361b5f04f55bfe97334f6b63de4860]
class MockPlantStore--><g id="elem_MockPlantStore"><rect codeLine="1" fill="#F1F1F1" height="347.3594" id="MockPlantStore" rx="2.5" ry="2.5" style="stroke:#181818;stroke-width:0.5;" width="393" x="7" y="379"/><ellipse cx="149.75" cy="395" fill="#ADD1B2" rx="11" ry="11" style="stroke:#181818;stroke-width:1.0;"/><path d="M152.5156,390.875 Q152.6719,390.6563 152.8594,390.5469 Q153.0469,390.4375 153.2656,390.4375 Q153.6406,390.4375 153.875,390.6953 Q154.1094,390.9531 154.1094,391.5625 L154.1094,393.0156 Q154.1094,393.625 153.875,393.8906 Q153.6406,394.1563 153.2656,394.1563 Q152.9219,394.1563 152.7188,393.9531 Q152.5156,393.7656 152.4063,393.25 Q152.3594,392.8906 152.1719,392.7031 Q151.8438,392.3281 151.2344,392.1094 Q150.625,391.8906 150,391.8906 Q149.2344,391.8906 148.6016,392.2188 Q147.9688,392.5469 147.4766,393.2969 Q146.9844,394.0469 146.9844,395.0781 L146.9844,396.1719 Q146.9844,397.4063 147.875,398.2266 Q148.7656,399.0469 150.3594,399.0469 Q151.2969,399.0469 151.9531,398.7969 Q152.3438,398.6406 152.7656,398.2031 Q153.0313,397.9375 153.1797,397.8594 Q153.3281,397.7813 153.5313,397.7813 Q153.8594,397.7813 154.1172,398.0391 Q154.375,398.2969 154.375,398.6406 Q154.375,398.9844 154.0313,399.3906 Q153.5313,399.9688 152.7344,400.2969 Q151.6563,400.75 150.3594,400.75 Q148.8438,400.75 147.6406,400.125 Q146.6563,399.625 145.9688,398.5547 Q145.2813,397.4844 145.2813,396.2031 L145.2813,395.0469 Q145.2813,393.7188 145.8984,392.5703 Q146.5156,391.4219 147.6094,390.8047 Q148.7031,390.1875 149.9375,390.1875 Q150.6719,390.1875 151.3203,390.3516 Q151.9688,390.5156 152.5156,390.875 Z " fill="#000000"/><text fill="#000000" font-family="sans-serif" font-size="14" lengthAdjust="spacing" textLength="99" x="170.25" y="400.7285">MockPlantStore</text><line style="stroke:#181818;stroke-width:0.5;" x1="8" x2="399" y1="411" y2="411"/><line style="stroke:#181818;stroke-width:0.5;" x1="8" x2="399" y1="419" y2="419"/><ellipse cx="18" cy="430" fill="#84BE84" rx="3" ry="3" style="stroke:#038048;stroke-width:1.0;"/><text fill="#000000" font-family="sans-serif" font-size="14" lengthAdjust="spacing" textLength="109" x="27" y="437.5332">MockPlantStore()</text><rect fill="#F24D5C" height="6" style="stroke:#C82930;stroke-width:1.0;" width="6" x="15" y="444.6094"/><text fill="#000000" font-family="sans-serif" font-size="14" lengthAdjust="spacing" textLength="137" x="27" y="455.1426">«async» Load() : void</text><ellipse cx="18" cy="465.2188" fill="#84BE84" rx="3" ry="3" style="stroke:#038048;stroke-width:1.0;"/><text fill="#000000" font-family="sans-serif" font-size="14" lengthAdjust="spacing" textLength="249" x="27" y="472.752">GetCategory(id:int) : Task&lt;ICategory?&gt;</text><ellipse cx="18" cy="482.8281" fill="#84BE84" rx="3" ry="3" style="stroke:#038048;stroke-width:1.0;"/><text fill="#000000" font-family="sans-serif" font-size="14" lengthAdjust="spacing" textLength="199" x="27" y="490.3613">GetShop(id:int) : Task&lt;IShop?&gt;</text><ellipse cx="18" cy="500.4375" fill="#84BE84" rx="3" ry="3" style="stroke:#038048;stroke-width:1.0;"/><text fill="#000000" font-family="sans-serif" font-size="14" lengthAdjust="spacing" textLength="265" x="27" y="507.9707">GetOffers(plantId:int) : Task&lt;List&lt;IOffer&gt;&gt;</text><ellipse cx="18" cy="518.0469" fill="#84BE84" rx="3" ry="3" style="stroke:#038048;stroke-width:1.0;"/><text fill="#000000" font-family="sans-serif" font-size="14" lengthAdjust="spacing" textLength="262" x="27" y="525.5801">GetPlants(userId:int) : Task&lt;List&lt;IPlant&gt;&gt;</text><ellipse cx="18" cy="535.6563" fill="#84BE84" rx="3" ry="3" style="stroke:#038048;stroke-width:1.0;"/><text fill="#000000" font-family="sans-serif" font-size="14" lengthAdjust="spacing" textLength="260" x="27" y="543.1895">GetCategories() : Task&lt;List&lt;ICategory&gt;&gt;</text><ellipse cx="18" cy="553.2656" fill="#84BE84" rx="3" ry="3" style="stroke:#038048;stroke-width:1.0;"/><text fill="#000000" font-family="sans-serif" font-size="14" lengthAdjust="spacing" textLength="206" x="27" y="560.7988">GetShops() : Task&lt;List&lt;IShop&gt;&gt;</text><ellipse cx="18" cy="570.875" fill="#84BE84" rx="3" ry="3" style="stroke:#038048;stroke-width:1.0;"/><text fill="#000000" font-family="sans-serif" font-size="14" lengthAdjust="spacing" textLength="204" x="27" y="578.4082">GetPlants() : Task&lt;List&lt;IPlant&gt;&gt;</text><ellipse cx="18" cy="588.4844" fill="#84BE84" rx="3" ry="3" style="stroke:#038048;stroke-width:1.0;"/><text fill="#000000" font-family="sans-serif" font-size="14" lengthAdjust="spacing" textLength="266" x="27" y="596.0176">AddUserPlant(userId:int, plantId:int) : Task</text><ellipse cx="18" cy="606.0938" fill="#84BE84" rx="3" ry="3" style="stroke:#038048;stroke-width:1.0;"/><text fill="#000000" font-family="sans-serif" font-size="14" lengthAdjust="spacing" textLength="282" x="27" y="613.627">DeleteUserPlant(userId:int, plantId:int) : Task</text><ellipse cx="18" cy="623.7031" fill="#84BE84" rx="3" ry="3" style="stroke:#038048;stroke-width:1.0;"/><text fill="#000000" font-family="sans-serif" font-size="14" lengthAdjust="spacing" textLength="334" x="27" y="631.2363">GetRating(offerId:int, userId:int) : Task&lt;IOfferRating&gt;</text><ellipse cx="18" cy="641.3125" fill="#84BE84" rx="3" ry="3" style="stroke:#038048;stroke-width:1.0;"/><text fill="#000000" font-family="sans-serif" font-size="14" lengthAdjust="spacing" textLength="265" x="27" y="648.8457">SetRating(offerRating:IOfferRating) : Task</text><ellipse cx="18" cy="658.9219" fill="#84BE84" rx="3" ry="3" style="stroke:#038048;stroke-width:1.0;"/><text fill="#000000" font-family="sans-serif" font-size="14" lengthAdjust="spacing" textLength="342" x="27" y="666.4551">GetOfferFollows(userId:int) : Task&lt;List&lt;IOfferFollow&gt;&gt;</text><ellipse cx="18" cy="676.5313" fill="#84BE84" rx="3" ry="3" style="stroke:#038048;stroke-width:1.0;"/><text fill="#000000" font-family="sans-serif" font-size="14" lengthAdjust="spacing" textLength="271" x="27" y="684.0645">IsFollow(offerId:int, userId:int) : Task&lt;bool&gt;</text><ellipse cx="18" cy="694.1406" fill="#84BE84" rx="3" ry="3" style="stroke:#038048;stroke-width:1.0;"/><text fill="#000000" font-family="sans-serif" font-size="14" lengthAdjust="spacing" textLength="328" x="27" y="701.6738">SetFollow(offerId:int, userId:int, isFollow:bool) : Task</text><ellipse cx="18" cy="711.75" fill="#84BE84" rx="3" ry="3" style="stroke:#038048;stroke-width:1.0;"/><text fill="#000000" font-family="sans-serif" font-size="14" lengthAdjust="spacing" textLength="367" x="27" y="719.2832">NewOfferFollow(offerId:int, userId:int) : Task&lt;IOfferFollow&gt;</text></g><!--MD5=[20f4f4f53b3d72866c932d4b159a5684]
class IPlantStore--><g id="elem_IPlantStore"><rect codeLine="20" fill="#F1F1F1" height="312.1406" id="IPlantStore" rx="2.5" ry="2.5" style="stroke:#181818;stroke-width:0.5;" width="379" x="14" y="7"/><ellipse cx="164.25" cy="23" fill="#B4A7E5" rx="11" ry="11" style="stroke:#181818;stroke-width:1.0;"/><path d="M165.2031,19.6406 L165.2031,26.2969 L166.9219,26.2969 Q167.5313,26.2969 167.7969,26.5313 Q168.0625,26.7656 168.0625,27.1563 Q168.0625,27.5313 167.7969,27.7656 Q167.5313,28 166.9219,28 L161.7813,28 Q161.1719,28 160.9063,27.7656 Q160.6406,27.5313 160.6406,27.1406 Q160.6406,26.7656 160.9063,26.5313 Q161.1719,26.2969 161.7813,26.2969 L163.5,26.2969 L163.5,19.6406 L161.7813,19.6406 Q161.1719,19.6406 160.9063,19.4063 Q160.6406,19.1719 160.6406,18.7813 Q160.6406,18.4063 160.9063,18.1719 Q161.1719,17.9375 161.7813,17.9375 L166.9219,17.9375 Q167.5313,17.9375 167.7969,18.1719 Q168.0625,18.4063 168.0625,18.7813 Q168.0625,19.1719 167.7969,19.4063 Q167.5313,19.6406 166.9219,19.6406 L165.2031,19.6406 Z " fill="#000000"/><text fill="#000000" font-family="sans-serif" font-size="14" font-style="italic" lengthAdjust="spacing" textLength="70" x="184.75" y="28.7285">IPlantStore</text><line style="stroke:#181818;stroke-width:0.5;" x1="15" x2="392" y1="39" y2="39"/><line style="stroke:#181818;stroke-width:0.5;" x1="15" x2="392" y1="47" y2="47"/><text fill="#000000" font-family="sans-serif" font-size="14" lengthAdjust="spacing" textLength="249" x="20" y="65.5332">GetCategory(id:int) : Task&lt;ICategory?&gt;</text><text fill="#000000" font-family="sans-serif" font-size="14" lengthAdjust="spacing" textLength="199" x="20" y="83.1426">GetShop(id:int) : Task&lt;IShop?&gt;</text><text fill="#000000" font-family="sans-serif" font-size="14" lengthAdjust="spacing" textLength="265" x="20" y="100.752">GetOffers(plantId:int) : Task&lt;List&lt;IOffer&gt;&gt;</text><text fill="#000000" font-family="sans-serif" font-size="14" lengthAdjust="spacing" textLength="262" x="20" y="118.3613">GetPlants(userId:int) : Task&lt;List&lt;IPlant&gt;&gt;</text><text fill="#000000" font-family="sans-serif" font-size="14" lengthAdjust="spacing" textLength="260" x="20" y="135.9707">GetCategories() : Task&lt;List&lt;ICategory&gt;&gt;</text><text fill="#000000" font-family="sans-serif" font-size="14" lengthAdjust="spacing" textLength="206" x="20" y="153.5801">GetShops() : Task&lt;List&lt;IShop&gt;&gt;</text><text fill="#000000" font-family="sans-serif" font-size="14" lengthAdjust="spacing" textLength="204" x="20" y="171.1895">GetPlants() : Task&lt;List&lt;IPlant&gt;&gt;</text><text fill="#000000" font-family="sans-serif" font-size="14" lengthAdjust="spacing" textLength="266" x="20" y="188.7988">AddUserPlant(userId:int, plantId:int) : Task</text><text fill="#000000" font-family="sans-serif" font-size="14" lengthAdjust="spacing" textLength="282" x="20" y="206.4082">DeleteUserPlant(userId:int, plantId:int) : Task</text><text fill="#000000" font-family="sans-serif" font-size="14" lengthAdjust="spacing" textLength="334" x="20" y="224.0176">GetRating(offerId:int, userId:int) : Task&lt;IOfferRating&gt;</text><text fill="#000000" font-family="sans-serif" font-size="14" lengthAdjust="spacing" textLength="265" x="20" y="241.627">SetRating(offerRating:IOfferRating) : Task</text><text fill="#000000" font-family="sans-serif" font-size="14" lengthAdjust="spacing" textLength="342" x="20" y="259.2363">GetOfferFollows(userId:int) : Task&lt;List&lt;IOfferFollow&gt;&gt;</text><text fill="#000000" font-family="sans-serif" font-size="14" lengthAdjust="spacing" textLength="271" x="20" y="276.8457">IsFollow(offerId:int, userId:int) : Task&lt;bool&gt;</text><text fill="#000000" font-family="sans-serif" font-size="14" lengthAdjust="spacing" textLength="328" x="20" y="294.4551">SetFollow(offerId:int, userId:int, isFollow:bool) : Task</text><text fill="#000000" font-family="sans-serif" font-size="14" lengthAdjust="spacing" textLength="367" x="20" y="312.0645">NewOfferFollow(offerId:int, userId:int) : Task&lt;IOfferFollow&gt;</text></g><!--MD5=[3d4177ac58b4411586d067f34e84928f]
class List--><g id="elem_List"><rect codeLine="37" fill="#F1F1F1" height="48" id="List" rx="2.5" ry="2.5" style="stroke:#181818;stroke-width:0.5;" width="65" x="435" y="528.5"/><ellipse cx="450" cy="544.5" fill="#ADD1B2" rx="11" ry="11" style="stroke:#181818;stroke-width:1.0;"/><path d="M452.7656,540.375 Q452.9219,540.1563 453.1094,540.0469 Q453.2969,539.9375 453.5156,539.9375 Q453.8906,539.9375 454.125,540.1953 Q454.3594,540.4531 454.3594,541.0625 L454.3594,542.5156 Q454.3594,543.125 454.125,543.3906 Q453.8906,543.6563 453.5156,543.6563 Q453.1719,543.6563 452.9688,543.4531 Q452.7656,543.2656 452.6563,542.75 Q452.6094,542.3906 452.4219,542.2031 Q452.0938,541.8281 451.4844,541.6094 Q450.875,541.3906 450.25,541.3906 Q449.4844,541.3906 448.8516,541.7188 Q448.2188,542.0469 447.7266,542.7969 Q447.2344,543.5469 447.2344,544.5781 L447.2344,545.6719 Q447.2344,546.9063 448.125,547.7266 Q449.0156,548.5469 450.6094,548.5469 Q451.5469,548.5469 452.2031,548.2969 Q452.5938,548.1406 453.0156,547.7031 Q453.2813,547.4375 453.4297,547.3594 Q453.5781,547.2813 453.7813,547.2813 Q454.1094,547.2813 454.3672,547.5391 Q454.625,547.7969 454.625,548.1406 Q454.625,548.4844 454.2813,548.8906 Q453.7813,549.4688 452.9844,549.7969 Q451.9063,550.25 450.6094,550.25 Q449.0938,550.25 447.8906,549.625 Q446.9063,549.125 446.2188,548.0547 Q445.5313,546.9844 445.5313,545.7031 L445.5313,544.5469 Q445.5313,543.2188 446.1484,542.0703 Q446.7656,540.9219 447.8594,540.3047 Q448.9531,539.6875 450.1875,539.6875 Q450.9219,539.6875 451.5703,539.8516 Q452.2188,540.0156 452.7656,540.375 Z " fill="#000000"/><text fill="#000000" font-family="sans-serif" font-size="14" lengthAdjust="spacing" textLength="22" x="464" y="550.2285">List</text><rect fill="#FFFFFF" height="17.0938" style="stroke:#000000;stroke-width:1.0;stroke-dasharray:2.0,2.0;" width="9" x="494" y="525.5"/><text fill="#000000" font-family="sans-serif" font-size="12" font-style="italic" lengthAdjust="spacing" textLength="7" x="495" y="538.957">T</text><line style="stroke:#181818;stroke-width:0.5;" x1="436" x2="499" y1="560.5" y2="560.5"/><line style="stroke:#181818;stroke-width:0.5;" x1="436" x2="499" y1="568.5" y2="568.5"/></g><!--MD5=[ac53401ad54431237cd53ac043bd62f0]
class MockUserStore--><g id="elem_MockUserStore"><rect codeLine="44" fill="#F1F1F1" height="65.6094" id="MockUserStore" rx="2.5" ry="2.5" style="stroke:#181818;stroke-width:0.5;" width="256" x="535.5" y="519.5"/><ellipse cx="611.25" cy="535.5" fill="#ADD1B2" rx="11" ry="11" style="stroke:#181818;stroke-width:1.0;"/><path d="M614.0156,531.375 Q614.1719,531.1563 614.3594,531.0469 Q614.5469,530.9375 614.7656,530.9375 Q615.1406,530.9375 615.375,531.1953 Q615.6094,531.4531 615.6094,532.0625 L615.6094,533.5156 Q615.6094,534.125 615.375,534.3906 Q615.1406,534.6563 614.7656,534.6563 Q614.4219,534.6563 614.2188,534.4531 Q614.0156,534.2656 613.9063,533.75 Q613.8594,533.3906 613.6719,533.2031 Q613.3438,532.8281 612.7344,532.6094 Q612.125,532.3906 611.5,532.3906 Q610.7344,532.3906 610.1016,532.7188 Q609.4688,533.0469 608.9766,533.7969 Q608.4844,534.5469 608.4844,535.5781 L608.4844,536.6719 Q608.4844,537.9063 609.375,538.7266 Q610.2656,539.5469 611.8594,539.5469 Q612.7969,539.5469 613.4531,539.2969 Q613.8438,539.1406 614.2656,538.7031 Q614.5313,538.4375 614.6797,538.3594 Q614.8281,538.2813 615.0313,538.2813 Q615.3594,538.2813 615.6172,538.5391 Q615.875,538.7969 615.875,539.1406 Q615.875,539.4844 615.5313,539.8906 Q615.0313,540.4688 614.2344,540.7969 Q613.1563,541.25 611.8594,541.25 Q610.3438,541.25 609.1406,540.625 Q608.1563,540.125 607.4688,539.0547 Q606.7813,537.9844 606.7813,536.7031 L606.7813,535.5469 Q606.7813,534.2188 607.3984,533.0703 Q608.0156,531.9219 609.1094,531.3047 Q610.2031,530.6875 611.4375,530.6875 Q612.1719,530.6875 612.8203,530.8516 Q613.4688,531.0156 614.0156,531.375 Z " fill="#000000"/><text fill="#000000" font-family="sans-serif" font-size="14" lengthAdjust="spacing" textLength="96" x="631.75" y="541.2285">MockUserStore</text><line style="stroke:#181818;stroke-width:0.5;" x1="536.5" x2="790.5" y1="551.5" y2="551.5"/><line style="stroke:#181818;stroke-width:0.5;" x1="536.5" x2="790.5" y1="559.5" y2="559.5"/><ellipse cx="546.5" cy="570.5" fill="#84BE84" rx="3" ry="3" style="stroke:#038048;stroke-width:1.0;"/><text fill="#000000" font-family="sans-serif" font-size="14" lengthAdjust="spacing" textLength="230" x="555.5" y="578.0332">GetUser(login:string) : Task&lt;IUser?&gt;</text></g><!--MD5=[ee6f579344ae056d598819b7181f59b1]
class IUserStore--><g id="elem_IUserStore"><rect codeLine="48" fill="#F1F1F1" height="65.6094" id="IUserStore" rx="2.5" ry="2.5" style="stroke:#181818;stroke-width:0.5;" width="242" x="542.5" y="130"/><ellipse cx="625.25" cy="146" fill="#B4A7E5" rx="11" ry="11" style="stroke:#181818;stroke-width:1.0;"/><path d="M626.2031,142.6406 L626.2031,149.2969 L627.9219,149.2969 Q628.5313,149.2969 628.7969,149.5313 Q629.0625,149.7656 629.0625,150.1563 Q629.0625,150.5313 628.7969,150.7656 Q628.5313,151 627.9219,151 L622.7813,151 Q622.1719,151 621.9063,150.7656 Q621.6406,150.5313 621.6406,150.1406 Q621.6406,149.7656 621.9063,149.5313 Q622.1719,149.2969 622.7813,149.2969 L624.5,149.2969 L624.5,142.6406 L622.7813,142.6406 Q622.1719,142.6406 621.9063,142.4063 Q621.6406,142.1719 621.6406,141.7813 Q621.6406,141.4063 621.9063,141.1719 Q622.1719,140.9375 622.7813,140.9375 L627.9219,140.9375 Q628.5313,140.9375 628.7969,141.1719 Q629.0625,141.4063 629.0625,141.7813 Q629.0625,142.1719 628.7969,142.4063 Q628.5313,142.6406 627.9219,142.6406 L626.2031,142.6406 Z " fill="#000000"/><text fill="#000000" font-family="sans-serif" font-size="14" font-style="italic" lengthAdjust="spacing" textLength="68" x="645.75" y="151.7285">IUserStore</text><line style="stroke:#181818;stroke-width:0.5;" x1="543.5" x2="783.5" y1="162" y2="162"/><line style="stroke:#181818;stroke-width:0.5;" x1="543.5" x2="783.5" y1="170" y2="170"/><text fill="#000000" font-family="sans-serif" font-size="14" lengthAdjust="spacing" textLength="230" x="548.5" y="188.5332">GetUser(login:string) : Task&lt;IUser?&gt;</text></g><!--MD5=[5233f5659aca26cd2532a9e8a61a4539]
reverse link IPlantStore to MockPlantStore--><g id="link_IPlantStore_MockPlantStore"><path codeLine="39" d="M203.5,339.47 C203.5,352.51 203.5,365.66 203.5,378.68 " fill="none" id="IPlantStore-backto-MockPlantStore" style="stroke:#181818;stroke-width:1.0;"/><polygon fill="none" points="196.5,339.1,203.5,319.1,210.5,339.1,196.5,339.1" style="stroke:#181818;stroke-width:1.0;"/></g><!--MD5=[27cf9b8a3d1ba3df7985d30e095a0fa6]
link MockPlantStore to List--><g id="link_MockPlantStore_List"><path codeLine="40" d="M408.5423,642.7145 C408.5423,642.7145 435.26,609.53 448.11,587.92 " fill="none" id="MockPlantStore-List" style="stroke:#181818;stroke-width:1.0;"/><polygon fill="#181818" points="454.62,576.65,446.6501,582.4363,452.1157,580.9776,453.5743,586.4432,454.62,576.65" style="stroke:#181818;stroke-width:1.0;"/><line style="stroke:#181818;stroke-width:1.0;" x1="452.1157" x2="448.12" y1="580.9776" y2="587.91"/><polygon fill="none" points="400.21,651.35,407.2547,649.8097,408.5423,642.7145,401.4976,644.2548,400.21,651.35" style="stroke:#181818;stroke-width:1.0;"/><text fill="#000000" font-family="sans-serif" font-size="13" lengthAdjust="spacing" textLength="138" x="390.5109" y="606.3571">_categories&lt;ICategory&gt;</text></g><!--MD5=[27cf9b8a3d1ba3df7985d30e095a0fa6]
link MockPlantStore to List--><g id="link_MockPlantStore_List"><path codeLine="41" d="M411.5252,581.4541 C411.5252,581.4541 419.63,578.29 423.1,576.77 " fill="none" id="MockPlantStore-List-1" style="stroke:#181818;stroke-width:1.0;"/><polygon fill="#181818" points="434.91,571.28,425.0626,571.4514,430.377,573.3899,428.4385,578.7043,434.91,571.28" style="stroke:#181818;stroke-width:1.0;"/><line style="stroke:#181818;stroke-width:1.0;" x1="430.377" x2="423.12" y1="573.3899" y2="576.765"/><polygon fill="none" points="400.21,585.45,407.1995,587.2238,411.5252,581.4541,404.5356,579.6803,400.21,585.45" style="stroke:#181818;stroke-width:1.0;"/><text fill="#000000" font-family="sans-serif" font-size="13" lengthAdjust="spacing" textLength="91" x="382.9955" y="598.1345">_shops&lt;IShop&gt;</text></g><!--MD5=[27cf9b8a3d1ba3df7985d30e095a0fa6]
link MockPlantStore to List--><g id="link_MockPlantStore_List"><path codeLine="42" d="M400.21,519.55 C410.24,522.78 420.27,526.76 430.3,531.5 " fill="none" id="MockPlantStore-to-List" style="stroke:#181818;stroke-width:1.0;"/><polygon fill="#181818" points="434.91,533.72,428.562,526.1898,430.4125,531.5355,425.0668,533.3859,434.91,533.72" style="stroke:#181818;stroke-width:1.0;"/><text fill="#000000" font-family="sans-serif" font-size="13" lengthAdjust="spacing" textLength="91" x="436.2873" y="516.3917">_plants&lt;IPlant&gt;</text></g><!--MD5=[27cf9b8a3d1ba3df7985d30e095a0fa6]
link MockPlantStore to List--><g id="link_MockPlantStore_List"><path codeLine="43" d="M408.5423,462.2855 C408.5423,462.2855 435.26,495.47 448.11,517.08 " fill="none" id="MockPlantStore-List-2" style="stroke:#181818;stroke-width:1.0;"/><polygon fill="#181818" points="454.62,528.35,453.5743,518.5568,452.1157,524.0224,446.6501,522.5637,454.62,528.35" style="stroke:#181818;stroke-width:1.0;"/><line style="stroke:#181818;stroke-width:1.0;" x1="452.1157" x2="448.12" y1="524.0224" y2="517.09"/><polygon fill="none" points="400.21,453.65,401.4976,460.7452,408.5423,462.2855,407.2547,455.1903,400.21,453.65" style="stroke:#181818;stroke-width:1.0;"/><text fill="#000000" font-family="sans-serif" font-size="13" lengthAdjust="spacing" textLength="84" x="443.6493" y="513.0299">_offers&lt;IOffer&gt;</text></g><!--MD5=[243b2b1c5a5d1b0c950945752fbeb402]
reverse link IUserStore to MockUserStore--><g id="link_IUserStore_MockUserStore"><path codeLine="47" d="M663.5,216.24 C663.5,297.69 663.5,452.55 663.5,519.42 " fill="none" id="IUserStore-backto-MockUserStore" style="stroke:#181818;stroke-width:1.0;"/><polygon fill="none" points="656.5,216.04,663.5,196.04,670.5,216.04,656.5,216.04" style="stroke:#181818;stroke-width:1.0;"/></g><!--MD5=[d25d1d44b98649750f766e025cba498d]
@startuml
class MockPlantStore {
    + MockPlantStore()
    - <<async>> Load() : void
    + GetCategory(id:int) : Task<ICategory?>
    + GetShop(id:int) : Task<IShop?>
    + GetOffers(plantId:int) : Task<List<IOffer>>
    + GetPlants(userId:int) : Task<List<IPlant>>
    + GetCategories() : Task<List<ICategory>>
    + GetShops() : Task<List<IShop>>
    + GetPlants() : Task<List<IPlant>>
    + AddUserPlant(userId:int, plantId:int) : Task
    + DeleteUserPlant(userId:int, plantId:int) : Task
    + GetRating(offerId:int, userId:int) : Task<IOfferRating>
    + SetRating(offerRating:IOfferRating) : Task
    + GetOfferFollows(userId:int) : Task<List<IOfferFollow>>
    + IsFollow(offerId:int, userId:int) : Task<bool>
    + SetFollow(offerId:int, userId:int, isFollow:bool) : Task
    + NewOfferFollow(offerId:int, userId:int) : Task<IOfferFollow>
}
interface IPlantStore {
    GetCategory(id:int) : Task<ICategory?>
    GetShop(id:int) : Task<IShop?>
    GetOffers(plantId:int) : Task<List<IOffer>>
    GetPlants(userId:int) : Task<List<IPlant>>
    GetCategories() : Task<List<ICategory>>
    GetShops() : Task<List<IShop>>
    GetPlants() : Task<List<IPlant>>
    AddUserPlant(userId:int, plantId:int) : Task
    DeleteUserPlant(userId:int, plantId:int) : Task
    GetRating(offerId:int, userId:int) : Task<IOfferRating>
    SetRating(offerRating:IOfferRating) : Task
    GetOfferFollows(userId:int) : Task<List<IOfferFollow>>
    IsFollow(offerId:int, userId:int) : Task<bool>
    SetFollow(offerId:int, userId:int, isFollow:bool) : Task
    NewOfferFollow(offerId:int, userId:int) : Task<IOfferFollow>
}
class "List"<T> {
}
IPlantStore <|- - MockPlantStore
MockPlantStore o-> "_categories<ICategory>" "List"
MockPlantStore o-> "_shops<IShop>" "List"
MockPlantStore - -> "_plants<IPlant>" "List"
MockPlantStore o-> "_offers<IOffer>" "List"
class MockUserStore {
    + GetUser(login:string) : Task<IUser?>
}
IUserStore <|- - MockUserStore
interface IUserStore {
    GetUser(login:string) : Task<IUser?>
}
@enduml

PlantUML version 1.2022.6(Tue Jun 21 19:34:49 CEST 2022)
(GPL source distribution)
Java Runtime: Java(TM) SE Runtime Environment
JVM: Java HotSpot(TM) 64-Bit Server VM
Default Encoding: Cp1250
Language: pl
Country: PL
--></g></svg>