<?xml version="1.0" encoding="UTF-8" standalone="no"?><svg xmlns="http://www.w3.org/2000/svg" xmlns:xlink="http://www.w3.org/1999/xlink" contentStyleType="text/css" height="313px" preserveAspectRatio="none" style="width:589px;height:313px;background:#FFFFFF;" version="1.1" viewBox="0 0 589 313" width="589px" zoomAndPan="magnify"><defs/><g><!--MD5=[e2516599ef6971b6fd1b397773b62157]
class FollowingTemplateSelector--><g id="elem_FollowingTemplateSelector"><rect codeLine="1" fill="#F1F1F1" height="65.6094" id="FollowingTemplateSelector" rx="2.5" ry="2.5" style="stroke:#181818;stroke-width:0.5;" width="575" x="7" y="241"/><ellipse cx="205.25" cy="257" fill="#ADD1B2" rx="11" ry="11" style="stroke:#181818;stroke-width:1.0;"/><path d="M208.0156,252.875 Q208.1719,252.6563 208.3594,252.5469 Q208.5469,252.4375 208.7656,252.4375 Q209.1406,252.4375 209.375,252.6953 Q209.6094,252.9531 209.6094,253.5625 L209.6094,255.0156 Q209.6094,255.625 209.375,255.8906 Q209.1406,256.1563 208.7656,256.1563 Q208.4219,256.1563 208.2188,255.9531 Q208.0156,255.7656 207.9063,255.25 Q207.8594,254.8906 207.6719,254.7031 Q207.3438,254.3281 206.7344,254.1094 Q206.125,253.8906 205.5,253.8906 Q204.7344,253.8906 204.1016,254.2188 Q203.4688,254.5469 202.9766,255.2969 Q202.4844,256.0469 202.4844,257.0781 L202.4844,258.1719 Q202.4844,259.4063 203.375,260.2266 Q204.2656,261.0469 205.8594,261.0469 Q206.7969,261.0469 207.4531,260.7969 Q207.8438,260.6406 208.2656,260.2031 Q208.5313,259.9375 208.6797,259.8594 Q208.8281,259.7813 209.0313,259.7813 Q209.3594,259.7813 209.6172,260.0391 Q209.875,260.2969 209.875,260.6406 Q209.875,260.9844 209.5313,261.3906 Q209.0313,261.9688 208.2344,262.2969 Q207.1563,262.75 205.8594,262.75 Q204.3438,262.75 203.1406,262.125 Q202.1563,261.625 201.4688,260.5547 Q200.7813,259.4844 200.7813,258.2031 L200.7813,257.0469 Q200.7813,255.7188 201.3984,254.5703 Q202.0156,253.4219 203.1094,252.8047 Q204.2031,252.1875 205.4375,252.1875 Q206.1719,252.1875 206.8203,252.3516 Q207.4688,252.5156 208.0156,252.875 Z " fill="#000000"/><text fill="#000000" font-family="sans-serif" font-size="14" lengthAdjust="spacing" textLength="170" x="225.75" y="262.7285">FollowingTemplateSelector</text><line style="stroke:#181818;stroke-width:0.5;" x1="8" x2="581" y1="273" y2="273"/><line style="stroke:#181818;stroke-width:0.5;" x1="8" x2="581" y1="281" y2="281"/><ellipse cx="18" cy="292" fill="#84BE84" rx="3" ry="3" style="stroke:#038048;stroke-width:1.0;"/><text fill="#000000" font-family="sans-serif" font-size="14" lengthAdjust="spacing" textLength="549" x="27" y="299.5332">«override» SelectTemplate(item:object, container:DependencyObject) : DataTemplate?</text></g><!--MD5=[f1ac0b3cd4ebc3a7d5d4fb04c18881cc]
class DataTemplateSelector--><g id="elem_DataTemplateSelector"><rect fill="#F1F1F1" height="48" id="DataTemplateSelector" rx="2.5" ry="2.5" style="stroke:#181818;stroke-width:0.5;" width="173" x="208" y="133"/><ellipse cx="223" cy="149" fill="#ADD1B2" rx="11" ry="11" style="stroke:#181818;stroke-width:1.0;"/><path d="M225.7656,144.875 Q225.9219,144.6563 226.1094,144.5469 Q226.2969,144.4375 226.5156,144.4375 Q226.8906,144.4375 227.125,144.6953 Q227.3594,144.9531 227.3594,145.5625 L227.3594,147.0156 Q227.3594,147.625 227.125,147.8906 Q226.8906,148.1563 226.5156,148.1563 Q226.1719,148.1563 225.9688,147.9531 Q225.7656,147.7656 225.6563,147.25 Q225.6094,146.8906 225.4219,146.7031 Q225.0938,146.3281 224.4844,146.1094 Q223.875,145.8906 223.25,145.8906 Q222.4844,145.8906 221.8516,146.2188 Q221.2188,146.5469 220.7266,147.2969 Q220.2344,148.0469 220.2344,149.0781 L220.2344,150.1719 Q220.2344,151.4063 221.125,152.2266 Q222.0156,153.0469 223.6094,153.0469 Q224.5469,153.0469 225.2031,152.7969 Q225.5938,152.6406 226.0156,152.2031 Q226.2813,151.9375 226.4297,151.8594 Q226.5781,151.7813 226.7813,151.7813 Q227.1094,151.7813 227.3672,152.0391 Q227.625,152.2969 227.625,152.6406 Q227.625,152.9844 227.2813,153.3906 Q226.7813,153.9688 225.9844,154.2969 Q224.9063,154.75 223.6094,154.75 Q222.0938,154.75 220.8906,154.125 Q219.9063,153.625 219.2188,152.5547 Q218.5313,151.4844 218.5313,150.2031 L218.5313,149.0469 Q218.5313,147.7188 219.1484,146.5703 Q219.7656,145.4219 220.8594,144.8047 Q221.9531,144.1875 223.1875,144.1875 Q223.9219,144.1875 224.5703,144.3516 Q225.2188,144.5156 225.7656,144.875 Z " fill="#000000"/><text fill="#000000" font-family="sans-serif" font-size="14" lengthAdjust="spacing" textLength="141" x="237" y="154.7285">DataTemplateSelector</text><line style="stroke:#181818;stroke-width:0.5;" x1="209" x2="380" y1="165" y2="165"/><line style="stroke:#181818;stroke-width:0.5;" x1="209" x2="380" y1="173" y2="173"/></g><!--MD5=[c9f17f72ab30c130e469ce3a046afdbc]
class RatingTemplateSelector--><g id="elem_RatingTemplateSelector"><rect codeLine="5" fill="#F1F1F1" height="65.6094" id="RatingTemplateSelector" rx="2.5" ry="2.5" style="stroke:#181818;stroke-width:0.5;" width="575" x="7" y="7"/><ellipse cx="214.25" cy="23" fill="#ADD1B2" rx="11" ry="11" style="stroke:#181818;stroke-width:1.0;"/><path d="M217.0156,18.875 Q217.1719,18.6563 217.3594,18.5469 Q217.5469,18.4375 217.7656,18.4375 Q218.1406,18.4375 218.375,18.6953 Q218.6094,18.9531 218.6094,19.5625 L218.6094,21.0156 Q218.6094,21.625 218.375,21.8906 Q218.1406,22.1563 217.7656,22.1563 Q217.4219,22.1563 217.2188,21.9531 Q217.0156,21.7656 216.9063,21.25 Q216.8594,20.8906 216.6719,20.7031 Q216.3438,20.3281 215.7344,20.1094 Q215.125,19.8906 214.5,19.8906 Q213.7344,19.8906 213.1016,20.2188 Q212.4688,20.5469 211.9766,21.2969 Q211.4844,22.0469 211.4844,23.0781 L211.4844,24.1719 Q211.4844,25.4063 212.375,26.2266 Q213.2656,27.0469 214.8594,27.0469 Q215.7969,27.0469 216.4531,26.7969 Q216.8438,26.6406 217.2656,26.2031 Q217.5313,25.9375 217.6797,25.8594 Q217.8281,25.7813 218.0313,25.7813 Q218.3594,25.7813 218.6172,26.0391 Q218.875,26.2969 218.875,26.6406 Q218.875,26.9844 218.5313,27.3906 Q218.0313,27.9688 217.2344,28.2969 Q216.1563,28.75 214.8594,28.75 Q213.3438,28.75 212.1406,28.125 Q211.1563,27.625 210.4688,26.5547 Q209.7813,25.4844 209.7813,24.2031 L209.7813,23.0469 Q209.7813,21.7188 210.3984,20.5703 Q211.0156,19.4219 212.1094,18.8047 Q213.2031,18.1875 214.4375,18.1875 Q215.1719,18.1875 215.8203,18.3516 Q216.4688,18.5156 217.0156,18.875 Z " fill="#000000"/><text fill="#000000" font-family="sans-serif" font-size="14" lengthAdjust="spacing" textLength="152" x="234.75" y="28.7285">RatingTemplateSelector</text><line style="stroke:#181818;stroke-width:0.5;" x1="8" x2="581" y1="39" y2="39"/><line style="stroke:#181818;stroke-width:0.5;" x1="8" x2="581" y1="47" y2="47"/><ellipse cx="18" cy="58" fill="#84BE84" rx="3" ry="3" style="stroke:#038048;stroke-width:1.0;"/><text fill="#000000" font-family="sans-serif" font-size="14" lengthAdjust="spacing" textLength="549" x="27" y="65.5332">«override» SelectTemplate(item:object, container:DependencyObject) : DataTemplate?</text></g><!--MD5=[ca68b3a721495b86d88774491cff041a]
reverse link DataTemplateSelector to FollowingTemplateSelector--><g id="link_DataTemplateSelector_FollowingTemplateSelector"><path codeLine="4" d="M294.5,201.62 C294.5,214.56 294.5,228.51 294.5,240.61 " fill="none" id="DataTemplateSelector-backto-FollowingTemplateSelector" style="stroke:#181818;stroke-width:1.0;"/><polygon fill="none" points="287.5,201.27,294.5,181.27,301.5,201.27,287.5,201.27" style="stroke:#181818;stroke-width:1.0;"/></g><!--MD5=[6675c29f1adbd2447324a564804a8086]
link RatingTemplateSelector to DataTemplateSelector--><g id="link_RatingTemplateSelector_DataTemplateSelector"><path codeLine="8" d="M294.5,73.03 C294.5,85.36 294.5,99.64 294.5,112.84 " fill="none" id="RatingTemplateSelector-to-DataTemplateSelector" style="stroke:#181818;stroke-width:1.0;"/><polygon fill="none" points="301.5,112.89,294.5,132.89,287.5,112.89,301.5,112.89" style="stroke:#181818;stroke-width:1.0;"/></g><!--MD5=[cbf7caa79d7826f074a1dedcf4580596]
@startuml
class FollowingTemplateSelector {
    + <<override>> SelectTemplate(item:object, container:DependencyObject) : DataTemplate?
}
DataTemplateSelector <|-d- FollowingTemplateSelector
class RatingTemplateSelector {
    + <<override>> SelectTemplate(item:object, container:DependencyObject) : DataTemplate?
}
DataTemplateSelector <|-u- RatingTemplateSelector
@enduml

PlantUML version 1.2022.6(Tue Jun 21 19:34:49 CEST 2022)
(GPL source distribution)
Java Runtime: Java(TM) SE Runtime Environment
JVM: Java HotSpot(TM) 64-Bit Server VM
Default Encoding: Cp1250
Language: pl
Country: PL
--></g></svg>